<?xml version="1.0" encoding="UTF-8" standalone="no"?>
<!DOCTYPE svg PUBLIC "-//W3C//DTD SVG 1.1//EN" "http://www.w3.org/Graphics/SVG/1.1/DTD/svg11.dtd">
<svg xmlns="http://www.w3.org/2000/svg" version="1.1" viewBox="0.00 0.00 309.00 72.00" width="309.00" height="72.00">
<path fill="#D4D3D82424" d="
  M 24.09 34.24
  C 25.00 34.77 25.94 35.68 26.54 36.55
  C 29.13 40.34 31.34 44.33 33.19 48.50
  C 33.26 48.66 33.21 48.74 33.04 48.74
  L 24.71 48.94
  C 24.53 48.94 24.40 48.86 24.33 48.70
  C 22.80 45.33 21.14 42.11 19.33 39.02
  C 18.56 37.72 17.32 36.72 16.03 35.97
  C 15.10 35.43 13.93 36.10 13.93 37.18
  L 13.94 48.46
  C 13.94 48.73 13.81 48.86 13.54 48.85
  L 6.49 48.84
  C 6.25 48.83 6.06 48.64 6.05 48.40
  C 5.97 43.38 5.96 38.57 6.02 33.98
  C 6.06 30.64 6.45 26.05 6.03 22.00
  C 5.88 20.61 6.15 19.35 6.84 18.22
  C 7.01 17.94 7.11 17.64 7.13 17.31
  C 7.19 16.54 7.57 15.88 8.28 15.33
  C 8.57 15.11 8.89 15.00 9.25 15.00
  C 14.17 14.95 18.44 15.02 22.06 15.19
  C 24.03 15.28 25.89 15.95 27.66 17.19
  C 29.07 18.18 30.04 19.64 30.56 21.57
  C 32.03 26.98 29.07 31.27 24.15 33.29
  C 23.48 33.57 23.46 33.89 24.09 34.24
  Z
  M 14.14 21.15
  L 14.12 29.57
  C 14.12 29.81 14.31 30.00 14.55 30.00
  L 17.71 30.01
  C 20.14 30.01 22.11 28.07 22.11 25.68
  L 22.11 25.08
  C 22.11 22.68 20.15 20.73 17.73 20.73
  L 14.57 20.72
  C 14.33 20.72 14.14 20.92 14.14 21.15
  Z"
/>
<path fill="#D4D3D824" d="
  M 217.64 15.25
  C 217.64 15.09 217.77 14.97 217.92 14.97
  L 232.38 14.89
  C 240.96 14.85 247.96 21.52 248.00 29.79
  L 248.02 33.73
  C 248.06 42.00 241.14 48.75 232.56 48.79
  L 218.10 48.87
  C 217.94 48.87 217.82 48.74 217.82 48.59
  L 217.64 15.25
  Z
  M 226.17 21.60
  L 226.27 42.36
  C 226.28 42.58 226.46 42.75 226.68 42.75
  L 229.70 42.74
  C 235.27 42.71 239.77 38.18 239.74 32.62
  L 239.74 31.18
  C 239.71 25.63 235.16 21.15 229.58 21.18
  L 226.56 21.19
  C 226.34 21.19 226.16 21.37 226.17 21.60
  Z"
/>
<path fill="#D4D3D824" d="
  M 42.75 39.78
  C 41.58 39.78 41.31 40.27 41.96 41.25
  C 44.74 45.46 49.31 44.31 52.91 41.94
  C 53.60 41.49 54.52 41.67 54.99 42.35
  L 56.80 45.03
  C 57.25 45.69 57.13 46.23 56.45 46.66
  C 51.40 49.81 46.20 50.54 40.84 48.87
  C 38.17 48.04 36.23 46.31 35.00 43.70
  C 33.72 40.96 33.64 36.93 34.17 33.95
  C 34.37 32.84 34.83 31.68 35.56 30.45
  C 38.24 25.88 42.93 23.57 48.16 24.50
  C 50.14 24.85 51.82 25.65 53.19 26.90
  C 55.00 28.55 56.15 30.22 56.66 31.92
  C 57.26 33.96 57.45 36.42 57.23 39.30
  C 57.20 39.62 57.03 39.78 56.71 39.78
  L 42.75 39.78
  Z
  M 42.21 34.99
  L 49.67 35.01
  C 49.81 35.01 49.92 34.90 49.92 34.76
  L 49.92 34.60
  C 49.93 31.84 48.21 29.59 46.07 29.58
  L 45.85 29.58
  C 43.71 29.57 41.97 31.81 41.96 34.58
  L 41.96 34.74
  C 41.96 34.87 42.07 34.99 42.21 34.99
  Z"
/>
<path fill="#D4D3D824" d="
  M 66.22 48.38
  C 60.62 45.82 59.38 40.64 60.01 34.90
  C 60.39 31.48 62.08 28.79 65.08 26.82
  C 69.89 23.67 75.03 23.39 80.50 25.98
  C 80.81 26.13 80.90 26.52 80.69 26.79
  C 79.80 27.90 79.13 29.05 78.66 30.26
  C 78.53 30.59 78.29 30.79 77.94 30.84
  C 76.37 31.06 75.44 29.84 73.92 29.92
  C 71.61 30.05 69.98 31.00 69.02 32.79
  C 67.25 36.08 67.44 39.17 69.59 42.04
  C 70.41 43.13 71.57 43.81 73.06 44.08
  C 73.44 44.15 73.81 44.12 74.17 43.99
  L 77.06 42.94
  C 77.55 42.77 77.92 42.90 78.18 43.35
  L 80.22 46.85
  C 80.45 47.24 80.36 47.53 79.97 47.74
  C 75.25 50.19 70.67 50.41 66.22 48.38
  Z"
/>
<path fill="#D4D3D824" d="
  M 121.39 27.83
  C 122.88 25.02 125.31 23.90 128.70 24.47
  C 129.28 24.57 129.66 25.15 129.50 25.72
  C 129.09 27.21 128.93 28.74 129.01 30.30
  C 129.03 30.64 128.87 30.83 128.53 30.88
  C 127.87 30.97 127.07 30.76 126.44 30.81
  C 123.18 31.10 121.39 32.97 121.08 36.42
  C 120.79 39.61 120.77 43.63 121.04 48.49
  C 121.05 48.66 120.91 48.80 120.74 48.81
  L 113.30 48.92
  C 113.17 48.92 113.10 48.85 113.10 48.72
  L 113.12 25.75
  C 113.12 25.32 113.33 25.12 113.75 25.13
  L 120.19 25.26
  C 120.64 25.27 120.87 25.50 120.88 25.95
  L 120.92 27.72
  C 120.93 28.36 121.09 28.40 121.39 27.83
  Z"
/>
<path fill="#D4D3D824" d="
  M 141.50 43.96
  C 142.89 43.61 143.21 41.78 142.02 40.99
  C 141.27 40.49 140.08 40.10 139.18 39.99
  C 135.69 39.53 131.85 37.77 131.12 33.91
  C 130.41 30.19 131.82 27.43 135.34 25.64
  C 139.32 23.61 143.65 23.79 148.32 26.20
  C 148.76 26.43 148.93 26.98 148.69 27.41
  L 146.77 30.87
  C 146.56 31.24 146.27 31.34 145.89 31.17
  L 143.62 30.15
  C 143.31 30.01 142.98 29.92 142.63 29.89
  C 140.81 29.71 139.13 29.32 138.18 31.44
  C 138.01 31.80 138.09 32.10 138.42 32.33
  C 139.72 33.25 141.22 33.82 142.92 34.05
  C 151.26 35.13 152.58 45.16 145.14 48.47
  C 140.54 50.52 135.53 50.09 130.11 47.18
  C 129.93 47.08 129.87 46.86 129.97 46.69
  L 132.90 41.94
  C 132.99 41.81 133.09 41.79 133.22 41.88
  C 135.99 43.96 138.75 44.65 141.50 43.96
  Z"
/>
<path fill="#D4D3D824" d="
  M 178.5428 37.6905
  C 178.18 44.81 171.88 50.28 164.4568 49.9035
  C 157.04 49.53 151.32 43.45 151.6772 36.3295
  C 152.04 29.21 158.34 23.74 165.7632 24.1165
  C 173.18 24.49 178.90 30.57 178.5428 37.6905
  Z
  M 165.1085 44.0991
  C 168.00 44.14 170.40 41.00 170.4594 37.0823
  C 170.52 33.16 168.23 29.95 165.3315 29.9009
  C 162.44 29.86 160.04 33.00 159.9806 36.9177
  C 159.92 40.84 162.21 44.05 165.1085 44.0991
  Z"
/>
<path fill="#D4D3D824" d="
  M 193.03 43.11
  C 193.60 42.43 193.38 41.39 192.58 41.01
  C 191.39 40.44 190.16 40.05 188.88 39.82
  C 187.59 39.59 186.37 39.19 185.21 38.61
  C 183.85 37.93 182.88 37.01 182.29 35.84
  C 180.00 31.27 182.30 26.93 186.88 25.18
  C 191.11 23.57 195.36 24.02 199.65 26.54
  C 199.82 26.64 199.85 26.77 199.76 26.94
  L 197.39 31.39
  C 197.30 31.55 197.18 31.59 197.02 31.50
  C 194.76 30.22 192.79 29.71 190.40 29.86
  C 189.60 29.91 189.09 30.35 188.87 31.17
  C 188.65 31.98 189.12 32.81 189.92 33.04
  C 193.78 34.17 198.95 34.39 200.20 39.21
  C 201.11 42.71 200.22 45.48 197.55 47.51
  C 195.31 49.22 191.19 50.15 188.43 49.69
  C 186.99 49.45 185.44 49.12 183.78 48.69
  C 183.50 48.62 183.26 48.48 183.06 48.27
  C 182.74 47.94 182.34 47.77 181.87 47.75
  C 180.95 47.72 180.41 46.71 180.89 45.93
  L 183.20 42.21
  C 183.46 41.79 184.05 41.71 184.41 42.05
  C 186.10 43.63 188.29 44.32 190.96 44.12
  C 191.83 44.06 192.52 43.72 193.03 43.11
  Z"
/>
<path fill="#D4D3D824" d="
  M 253.34 29.66
  C 253.97 28.55 254.76 27.63 255.69 26.92
  C 259.32 24.15 263.40 23.54 267.91 25.09
  C 271.36 26.29 273.36 28.27 274.29 31.89
  C 274.86 34.14 275.08 36.53 274.95 39.07
  C 274.92 39.60 274.65 39.86 274.12 39.85
  L 259.51 39.82
  C 259.20 39.82 259.09 39.97 259.20 40.27
  C 260.18 43.06 262.19 44.28 265.24 43.95
  C 266.91 43.76 268.89 42.98 271.19 41.60
  C 271.33 41.51 271.51 41.54 271.62 41.66
  L 274.93 45.55
  C 275.03 45.67 275.01 45.86 274.88 45.95
  C 270.05 49.50 264.96 50.60 259.61 49.23
  C 257.84 48.78 256.34 48.03 255.13 47.00
  C 253.74 45.83 252.78 44.44 252.25 42.83
  C 250.72 38.26 250.95 33.86 253.34 29.66
  Z
  M 259.78 35.02
  L 267.14 34.98
  C 267.39 34.98 267.58 34.78 267.58 34.54
  L 267.58 34.36
  C 267.57 31.75 265.71 29.65 263.44 29.66
  L 263.44 29.66
  C 261.16 29.67 259.33 31.79 259.34 34.40
  L 259.34 34.58
  C 259.34 34.82 259.54 35.02 259.78 35.02
  Z"
/>
<path fill="#D4D3D824" d="
  M 98.95 41.92
  C 99.26 40.59 99.43 39.46 99.44 38.53
  C 99.47 34.24 99.59 29.88 99.80 25.46
  C 99.81 25.31 99.89 25.23 100.04 25.23
  L 107.51 25.20
  C 107.68 25.20 107.82 25.34 107.82 25.51
  L 107.50 48.02
  C 107.49 48.53 107.24 48.79 106.73 48.80
  L 99.78 48.93
  C 99.34 48.94 99.12 48.72 99.12 48.28
  L 99.12 47.48
  C 99.12 46.91 98.90 46.81 98.47 47.18
  C 96.53 48.83 94.53 49.65 92.46 49.64
  C 86.81 49.63 83.96 46.63 83.92 40.64
  C 83.88 35.77 83.89 30.70 83.95 25.44
  C 83.96 25.23 84.07 25.12 84.28 25.13
  L 91.23 25.24
  C 91.44 25.24 91.54 25.35 91.55 25.56
  C 91.60 30.12 91.66 34.82 91.74 39.66
  C 91.76 40.78 91.96 41.63 92.35 42.22
  C 94.15 44.90 96.17 44.14 98.43 42.66
  C 98.70 42.49 98.88 42.24 98.95 41.92
  Z"
/>
<path fill="#D4D3D824" d="
  M 288.61 41.96
  L 293.32 25.37
  C 293.37 25.18 293.50 25.09 293.69 25.09
  L 301.49 25.20
  C 301.66 25.21 301.72 25.29 301.66 25.45
  L 293.34 48.11
  C 293.17 48.59 292.71 48.91 292.20 48.92
  L 284.43 48.98
  C 284.00 48.98 283.71 48.78 283.56 48.37
  L 275.40 25.37
  C 275.35 25.25 275.40 25.19 275.53 25.19
  L 283.31 25.20
  C 283.56 25.20 283.71 25.32 283.78 25.56
  L 288.46 41.96
  C 288.51 42.13 288.56 42.13 288.61 41.96
  Z"
/>
</svg>
