<?xml version="1.0" encoding="UTF-8" standalone="no"?>
<!DOCTYPE svg PUBLIC "-//W3C//DTD SVG 1.1//EN" "http://www.w3.org/Graphics/SVG/1.1/DTD/svg11.dtd">
<svg xmlns="http://www.w3.org/2000/svg" version="1.1" viewBox="0.00 0.00 500.00 500.00" width="500.00" height="500.00">
<g stroke-width="5.00" fill="none" stroke-linecap="butt">
<path stroke="#106a7a" vector-effect="non-scaling-stroke" d="
  M 326.58 58.08
  L 309.79 58.02"
/>
<path stroke="#828074" vector-effect="non-scaling-stroke" d="
  M 283.45 56.35
  C 281.82 55.60 280.17 55.05 278.51 54.70
  C 268.02 52.50 257.31 50.93 246.38 49.99
  C 227.98 48.40 210.47 50.20 192.32 53.33
  C 187.71 54.12 183.37 55.10 179.30 56.25
  C 173.03 58.02 168.77 59.30 166.50 60.08
  C 146.63 66.97 128.33 77.17 111.62 90.67
  C 108.10 93.51 104.88 96.72 101.51 99.64
  C 99.28 101.57 96.96 103.90 94.54 106.61
  C 92.54 108.85 90.51 111.06 88.45 113.24
  C 85.67 116.18 83.41 119.44 80.70 122.35
  C 79.00 124.18 77.99 126.48 76.39 128.38
  C 74.40 130.72 72.74 132.88 71.41 134.86"
/>
<path stroke="#767676" vector-effect="non-scaling-stroke" d="
  M 71.41 134.86
  C 70.86 135.31 69.41 136.22 67.07 137.61
  C 62.95 140.06 59.97 143.62 58.13 148.31
  C 56.57 152.28 56.96 156.10 54.90 160.14
  C 51.45 166.87 48.79 172.66 47.79 180.28
  C 47.06 185.87 45.79 191.59 43.96 197.44
  C 43.27 199.66 43.08 202.12 42.31 204.49
  C 42.20 204.80 42.18 205.13 42.23 205.45
  C 42.48 206.86 42.08 207.71 41.05 208.00"
/>
<path stroke="#898989" vector-effect="non-scaling-stroke" d="
  M 34.00 213.83
  C 33.92 215.70 33.33 217.43 33.30 219.29
  C 33.28 220.98 33.11 222.69 32.79 224.42
  C 32.18 227.73 32.26 230.83 32.23 234.12
  C 32.22 235.44 32.06 237.17 31.75 239.32
  C 31.24 242.85 31.27 246.38 31.85 249.91
  C 32.10 251.41 32.23 252.65 32.24 253.64
  C 32.30 256.85 32.21 259.94 32.61 263.06
  C 33.26 268.05 33.92 272.92 34.59 277.66
  C 35.77 286.11 38.37 293.87 40.53 301.93
  C 41.28 304.72 42.28 307.67 43.53 310.76
  C 44.72 313.67 45.93 316.66 47.18 319.74"
/>
<path stroke="#767676" vector-effect="non-scaling-stroke" d="
  M 47.18 319.74
  L 47.54 328.92"
/>
<path stroke="#ececec" vector-effect="non-scaling-stroke" d="
  M 247.71 366.75
  C 247.62 367.47 247.49 368.19 247.86 368.87
  C 250.81 374.34 253.67 379.77 256.42 385.18"
/>
<path stroke="#e5e3d7" vector-effect="non-scaling-stroke" d="
  M 259.48 390.95
  C 259.87 394.22 261.11 397.19 263.20 399.85"
/>
<path stroke="#767676" vector-effect="non-scaling-stroke" d="
  M 263.20 399.85
  C 263.25 400.52 263.52 401.25 264.01 402.02
  C 264.36 402.56 264.47 403.00 264.36 403.33
  C 264.24 403.68 263.99 403.87 263.62 403.88
  C 243.29 404.43 221.41 405.00 198.00 405.59
  C 193.57 405.70 192.64 402.31 191.15 398.89
  C 190.99 398.52 190.65 398.27 190.25 398.22
  L 189.06 398.05"
/>
<path stroke="#e5e3d7" vector-effect="non-scaling-stroke" d="
  M 189.06 398.05
  C 189.48 398.16 189.82 398.14 190.09 398.01
  C 190.33 397.89 190.46 397.62 190.39 397.36
  C 189.30 393.27 187.68 389.80 185.52 386.95"
/>
<path stroke="#767676" vector-effect="non-scaling-stroke" d="
  M 185.52 386.95
  C 184.73 384.75 183.80 382.61 182.72 380.54
  C 182.60 380.31 182.18 379.98 181.46 379.55"
/>
<path stroke="#ececec" vector-effect="non-scaling-stroke" d="
  M 181.46 379.55
  C 181.72 379.20 181.80 378.94 181.69 378.77
  C 179.71 375.49 178.27 371.43 176.63 368.41
  C 174.49 364.46 172.29 360.32 170.04 355.97
  C 169.29 354.52 168.05 353.12 167.29 351.57"
/>
<path stroke="#767676" vector-effect="non-scaling-stroke" d="
  M 167.29 351.57
  C 165.02 346.06 161.27 340.05 159.10 336.11
  C 157.52 333.23 155.89 330.34 154.21 327.45
  C 152.53 324.56 150.69 321.95 148.68 319.64
  C 145.53 316.03 142.42 312.99 139.34 310.54
  C 137.66 309.21 135.81 307.82 133.80 306.39
  C 131.34 304.65 128.62 302.88 125.95 301.82
  C 124.26 301.14 119.87 300.36 118.36 302.03"
/>
<path stroke="#ececec" vector-effect="non-scaling-stroke" d="
  M 118.36 302.03
  C 118.31 301.91 118.19 301.83 118.01 301.80
  C 117.89 301.78 117.76 301.80 117.61 301.87
  C 113.15 304.10 110.86 307.80 110.74 312.98
  C 110.61 318.62 110.72 323.19 111.09 326.69"
/>
<path stroke="#767676" vector-effect="non-scaling-stroke" d="
  M 111.09 326.69
  C 110.40 330.10 110.49 333.00 111.38 335.40"
/>
<path stroke="#e5e3d7" vector-effect="non-scaling-stroke" d="
  M 111.38 335.40
  C 110.83 335.87 110.58 336.38 110.63 336.92
  C 110.67 337.33 110.69 337.56 110.68 337.61
  C 110.52 340.98 110.50 344.36 110.63 347.75
  C 110.64 348.07 110.82 348.64 111.15 349.47"
/>
<path stroke="#767676" vector-effect="non-scaling-stroke" d="
  M 111.15 349.47
  C 110.90 349.80 110.78 350.06 110.77 350.25
  C 110.73 353.68 110.75 361.68 110.84 374.25
  C 110.84 374.55 110.88 374.90 110.95 375.29"
/>
<path stroke="#ececec" vector-effect="non-scaling-stroke" d="
  M 110.95 375.29
  C 110.73 375.38 110.62 375.54 110.63 375.75
  C 110.80 383.33 110.82 390.91 110.71 398.50
  C 110.70 399.29 110.87 400.35 111.24 401.68"
/>
<path stroke="#767676" vector-effect="non-scaling-stroke" d="
  M 111.24 401.68
  C 110.82 402.08 110.55 402.68 110.42 403.49
  C 110.31 404.20 110.05 404.42 109.66 404.15"
/>
<path stroke="#ececec" vector-effect="non-scaling-stroke" d="
  M 47.18 319.74
  C 47.41 312.67 47.51 305.76 47.49 299.00
  C 47.49 296.37 47.11 293.84 46.35 291.43
  C 45.02 287.16 44.34 284.99 44.33 284.92
  C 42.70 278.01 41.72 273.12 41.39 270.25
  C 39.10 250.12 39.08 229.70 41.32 209.00
  C 41.35 208.68 41.17 208.56 40.78 208.65"
/>
<path stroke="#106a7a" vector-effect="non-scaling-stroke" d="
  M 432.66 198.54
  C 429.46 206.05 425.75 212.73 421.54 218.60"
/>
<path stroke="#7ed7da" vector-effect="non-scaling-stroke" d="
  M 421.54 218.60
  L 416.88 224.04"
/>
<path stroke="#106a7a" vector-effect="non-scaling-stroke" d="
  M 416.88 224.04
  C 416.35 224.59 415.87 225.21 415.46 225.90
  C 414.23 227.97 411.94 229.51 410.30 231.29
  C 409.08 232.61 407.80 233.74 406.47 234.69
  C 403.97 236.46 401.95 238.46 399.18 240.05
  C 396.79 241.42 394.43 242.90 392.10 244.47"
/>
<path stroke="#7ed7da" vector-effect="non-scaling-stroke" d="
  M 392.10 244.47
  L 382.77 248.77"
/>
<path stroke="#106a7a" vector-effect="non-scaling-stroke" d="
  M 382.77 248.77
  L 377.23 251.11"
/>
<path stroke="#106a7a" vector-effect="non-scaling-stroke" d="
  M 356.56 255.25
  C 352.81 255.68 349.13 255.91 345.50 255.94
  C 318.23 256.12 290.64 256.25 262.72 256.32
  C 262.08 256.33 261.56 255.81 261.55 255.17
  L 260.63 116.32"
/>
<path stroke="#86e0f0" vector-effect="non-scaling-stroke" d="
  M 260.63 116.32
  L 260.38 96.61"
/>
<path stroke="#7ed7da" vector-effect="non-scaling-stroke" d="
  M 260.43 91.73
  L 260.28 82.07"
/>
<path stroke="#7ed7da" vector-effect="non-scaling-stroke" d="
  M 284.05 57.81
  L 272.11 57.99"
/>
<path stroke="#828074" vector-effect="non-scaling-stroke" d="
  M 272.11 57.99
  C 252.20 53.90 233.45 52.78 215.88 54.63
  C 203.75 55.90 192.22 57.86 181.30 60.51
  C 172.95 62.54 164.03 65.70 154.53 70.01
  C 152.70 70.84 150.83 71.64 148.92 72.41
  C 147.11 73.14 145.33 74.04 143.56 75.11
  C 141.03 76.65 138.48 78.17 135.89 79.66
  C 127.20 84.69 118.87 90.69 110.88 97.65
  C 101.63 105.71 93.42 114.23 86.24 123.20
  C 84.60 125.25 83.02 127.16 81.51 128.94
  C 79.76 131.00 78.39 133.20 76.85 135.47"
/>
<path stroke="#e5e3d7" vector-effect="non-scaling-stroke" d="
  M 76.85 135.47
  C 75.08 135.62 73.26 135.42 71.41 134.86"
/>
<path stroke="#828074" vector-effect="non-scaling-stroke" d="
  M 382.77 248.77
  C 382.94 255.10 382.42 261.17 381.22 267.00
  C 380.19 272.01 379.14 277.01 378.05 282.00
  C 376.92 287.20 374.00 293.26 372.06 298.45
  C 369.92 304.16 367.10 310.04 363.60 316.07
  C 359.81 322.62 356.11 328.27 352.50 333.02
  C 349.48 337.00 346.09 341.06 342.32 345.20
  C 336.85 351.22 330.21 357.36 322.41 363.61
  C 320.38 365.23 318.20 366.18 316.31 367.87
  C 314.91 369.11 313.37 370.14 311.70 370.96
  C 308.18 372.68 305.14 375.04 301.58 376.76
  C 297.38 378.80 293.11 380.74 288.76 382.58
  C 284.69 384.31 280.55 385.32 276.36 386.81
  C 270.93 388.74 265.31 390.12 259.48 390.95"
/>
<path stroke="#767676" vector-effect="non-scaling-stroke" d="
  M 259.48 390.95
  C 258.13 389.29 257.11 387.37 256.42 385.18"
/>
<path stroke="#898989" vector-effect="non-scaling-stroke" d="
  M 256.42 385.18
  C 263.57 384.30 270.22 382.70 276.37 380.37
  C 281.00 378.62 285.75 377.64 290.08 375.27
  C 294.27 372.97 298.52 371.08 302.83 369.60
  C 303.84 369.25 304.21 368.57 303.94 367.54
  C 303.63 366.39 303.21 365.33 302.68 364.35
  C 300.35 360.09 298.12 355.76 295.99 351.37
  C 295.83 351.04 295.59 350.97 295.28 351.15
  C 293.29 352.30 291.25 353.27 289.15 354.06
  C 285.01 355.59 281.55 357.87 277.23 359.26
  C 272.42 360.81 267.51 362.46 262.50 364.23
  C 260.37 364.98 255.44 365.82 247.71 366.75"
/>
<path stroke="#767676" vector-effect="non-scaling-stroke" d="
  M 247.71 366.75
  C 247.58 366.78 247.43 366.79 247.28 366.77
  C 246.99 366.72 246.79 366.57 246.66 366.30
  C 245.66 364.17 244.55 362.08 243.33 360.03
  C 242.15 358.04 241.00 355.98 239.89 353.86
  C 238.40 351.03 236.87 348.25 235.29 345.51
  C 227.59 332.16 219.37 319.09 210.62 306.38
  C 206.86 300.92 201.87 296.02 196.68 292.00
  C 193.68 289.68 190.20 288.73 188.13 285.28
  C 187.98 285.03 187.97 284.78 188.10 284.53
  C 189.67 281.45 194.78 279.88 197.83 278.60
  C 199.86 277.75 201.99 276.67 204.23 275.38
  C 212.58 270.53 220.00 264.86 226.47 258.38
  C 228.08 256.76 229.22 254.88 230.79 253.21
  C 231.91 252.01 232.90 250.72 233.75 249.33
  C 236.23 245.29 239.21 241.09 240.71 236.61
  C 242.06 232.55 243.75 228.58 244.66 224.36
  C 248.11 208.33 245.51 192.99 239.64 177.81
  C 238.86 175.78 237.87 173.74 236.67 171.69
  C 235.58 169.82 234.49 168.08 233.41 166.46
  C 230.67 162.36 227.24 158.67 223.11 155.40
  C 216.57 150.23 208.87 145.84 200.01 142.25
  C 195.40 140.37 190.42 139.53 185.51 138.28
  C 183.37 137.73 179.70 137.38 174.49 137.21
  C 168.90 137.04 163.14 136.70 157.22 136.19"
/>
<path stroke="#828074" vector-effect="non-scaling-stroke" d="
  M 185.52 386.95
  C 182.83 386.04 180.24 385.19 177.77 384.40
  C 175.10 383.54 172.62 382.51 170.33 381.30
  C 167.19 379.65 163.93 378.64 160.81 376.76
  C 156.26 374.01 152.13 371.44 148.44 369.04
  C 143.89 366.09 139.00 362.48 133.75 358.20
  C 132.24 356.97 130.94 355.78 129.84 354.64
  C 128.62 353.37 127.34 352.21 126.00 351.14
  C 124.03 349.57 122.19 347.79 120.48 345.79
  C 117.51 342.32 114.47 338.85 111.38 335.40"
/>
<path stroke="#898989" vector-effect="non-scaling-stroke" d="
  M 181.46 379.55
  C 178.18 378.58 174.96 377.52 171.96 375.84
  C 168.87 374.11 165.68 372.43 162.37 370.82
  C 156.98 368.19 150.36 364.03 142.53 358.34
  C 140.46 356.83 138.43 355.26 136.46 353.62
  C 130.96 349.07 126.12 343.86 120.97 338.78
  C 118.02 335.87 114.73 331.84 111.09 326.69"
/>
<path stroke="#898989" vector-effect="non-scaling-stroke" d="
  M 167.29 351.57
  C 164.50 349.40 161.63 347.48 158.66 345.82
  C 157.47 345.16 156.40 344.41 155.46 343.58
  C 152.94 341.36 150.03 339.69 147.56 337.50
  C 142.17 332.70 137.08 327.59 132.31 322.18
  C 129.30 318.76 126.61 314.65 123.81 310.82
  C 123.09 309.84 122.21 308.36 121.18 306.39
  C 120.39 304.85 119.45 303.40 118.36 302.03"
/>
<path stroke="#898989" vector-effect="non-scaling-stroke" d="
  M 260.63 116.32
  C 250.87 114.83 244.66 114.00 242.00 113.81
  C 221.79 112.37 202.35 115.14 183.66 122.13
  C 178.95 123.89 174.69 126.23 170.24 128.27
  C 168.13 129.24 165.93 130.48 163.65 132.00
  C 161.60 133.35 159.46 134.75 157.22 136.19"
/>
<path stroke="#ececec" vector-effect="non-scaling-stroke" d="
  M 157.22 136.19
  L 128.97 135.71
  C 128.81 135.70 128.65 135.62 128.56 135.49
  C 128.50 135.40 128.46 135.31 128.43 135.20"
/>
<path stroke="#898989" vector-effect="non-scaling-stroke" d="
  M 111.24 401.68
  C 119.53 407.69 125.93 411.98 130.42 414.57
  C 135.19 417.30 141.94 420.69 150.69 424.72
  C 156.44 427.36 161.79 428.94 167.53 430.96
  C 171.49 432.35 175.72 433.59 180.23 434.67
  C 187.38 436.38 194.25 437.79 200.82 438.92
  C 209.96 440.48 219.25 440.76 228.75 441.17
  C 233.45 441.38 238.49 441.38 243.17 440.94
  C 247.51 440.52 251.83 440.62 256.18 440.08
  C 266.09 438.85 273.88 436.93 282.60 434.88
  C 286.65 433.93 290.37 432.82 293.76 431.57
  C 300.04 429.25 306.19 427.53 312.10 424.08
  C 314.66 422.58 317.50 421.88 320.06 420.50
  C 330.01 415.13 339.70 409.11 349.15 402.43
  C 349.54 402.16 349.61 401.82 349.34 401.41
  L 346.58 397.18"
/>
<path stroke="#828074" vector-effect="non-scaling-stroke" d="
  M 346.58 397.18
  L 346.32 396.59
  C 346.20 396.30 346.28 395.96 346.53 395.76
  C 362.74 383.06 376.74 368.30 388.53 351.49
  C 390.28 349.00 391.67 346.44 393.40 343.93
  C 396.09 340.03 397.98 335.98 400.51 332.06
  C 403.50 327.47 405.53 322.17 407.96 317.11
  C 409.77 313.33 410.93 309.18 412.64 305.19
  C 413.75 302.59 414.73 299.60 415.58 296.23
  C 417.09 290.15 418.48 284.24 419.75 278.49
  C 420.80 273.69 421.52 266.98 421.90 258.36
  C 421.98 256.60 422.59 254.96 422.60 253.27
  C 422.63 247.12 422.63 241.02 422.60 234.97
  C 422.59 232.60 422.41 229.85 422.06 226.72
  C 421.77 224.16 421.59 221.45 421.54 218.60"
/>
<path stroke="#106a7a" vector-effect="non-scaling-stroke" d="
  M 272.11 57.99
  L 261.54 58.48
  C 260.88 58.51 260.36 59.06 260.35 59.73
  L 260.28 82.07"
/>
<path stroke="#828074" vector-effect="non-scaling-stroke" d="
  M 260.28 82.07
  C 258.92 81.72 257.64 81.42 256.44 81.16
  C 253.87 80.59 251.49 81.02 248.99 80.44
  C 247.89 80.18 246.81 80.05 245.74 80.05
  C 240.02 80.07 234.45 80.04 229.03 79.96
  C 223.60 79.88 218.21 80.22 212.86 80.99
  C 201.18 82.66 189.44 84.50 178.15 88.73
  C 173.89 90.33 169.58 91.30 165.60 93.59
  C 162.02 95.64 157.08 96.45 154.04 99.19
  C 153.28 99.88 152.44 100.39 151.52 100.74
  C 150.79 101.02 150.53 101.92 151.00 102.54
  C 152.27 104.25 153.23 106.32 153.88 108.75
  C 154.02 109.27 154.59 109.53 155.07 109.31
  C 158.35 107.76 161.41 105.85 164.77 104.27
  C 172.08 100.84 177.17 98.67 180.06 97.74
  C 187.71 95.27 195.90 93.23 204.62 91.60
  C 208.81 90.82 213.00 90.54 217.26 90.16
  C 225.43 89.42 233.78 89.77 242.00 89.73
  C 246.04 89.71 252.18 90.38 260.43 91.73"
/>
<path stroke="#106a7a" vector-effect="non-scaling-stroke" d="
  M 260.43 91.73
  L 260.38 96.61"
/>
<path stroke="#898989" vector-effect="non-scaling-stroke" d="
  M 260.38 96.61
  C 255.03 95.47 250.32 94.79 246.25 94.58
  C 234.86 93.99 221.71 93.93 209.68 95.41
  C 197.87 96.86 188.15 99.76 176.79 103.71
  C 173.90 104.72 171.10 105.87 168.41 107.16
  C 165.82 108.40 163.23 109.69 160.66 111.02
  C 156.59 113.13 150.42 117.06 142.16 122.83
  C 140.48 124.00 139.31 125.42 137.65 126.56
  C 134.26 128.90 131.51 132.41 128.43 135.20"
/>
<path stroke="#767676" vector-effect="non-scaling-stroke" d="
  M 128.43 135.20
  C 127.80 135.51 127.37 135.67 127.12 135.66
  C 110.40 135.33 93.64 135.26 76.85 135.47"
/>
<path stroke="#898989" vector-effect="non-scaling-stroke" d="
  M 342.67 391.62
  C 341.37 390.06 340.39 388.45 339.74 386.78
  C 339.54 386.26 338.91 386.07 338.44 386.37
  C 335.12 388.54 331.79 390.75 328.44 393.00
  C 324.28 395.79 319.98 398.03 315.73 400.71
  C 312.40 402.82 308.69 404.04 305.31 405.93
  C 299.62 409.10 293.19 410.94 287.15 413.28
  C 282.10 415.24 276.64 415.92 271.36 417.39
  C 267.39 418.50 263.23 419.37 258.88 420.01
  C 246.63 421.79 234.53 422.27 222.56 421.46
  C 201.79 420.04 181.61 415.53 162.04 407.93
  C 160.48 407.32 158.92 406.65 157.37 405.92
  C 153.39 404.02 149.46 402.53 145.55 400.31
  C 139.62 396.93 133.53 393.05 127.28 388.67
  C 121.23 384.43 115.78 379.97 110.95 375.29"
/>
<path stroke="#828074" vector-effect="non-scaling-stroke" d="
  M 111.15 349.47
  C 111.54 350.40 111.89 351.01 112.18 351.28
  C 114.11 353.11 115.99 354.99 117.81 356.94
  C 119.52 358.77 121.52 359.89 123.27 361.62
  C 124.46 362.79 125.70 363.91 127.01 364.97
  C 134.24 370.88 142.08 376.46 150.53 381.69
  C 152.20 382.74 154.34 383.88 156.94 385.11
  C 160.86 386.96 164.40 389.10 168.68 390.88
  C 170.05 391.45 171.82 392.22 174.00 393.21
  C 176.19 394.20 181.21 395.82 189.06 398.05"
/>
<path stroke="#828074" vector-effect="non-scaling-stroke" d="
  M 263.20 399.85
  C 273.19 397.88 281.82 395.46 289.07 392.59
  C 291.31 391.70 293.12 391.00 294.51 390.49
  C 298.84 388.90 302.44 386.76 306.49 384.83
  C 308.63 383.81 310.78 382.65 312.94 381.35
  C 320.88 376.60 328.49 371.13 335.76 364.95
  C 340.13 361.25 344.29 356.96 348.31 352.75
  C 349.98 351.00 351.61 349.18 353.18 347.27
  C 354.73 345.40 356.27 343.50 357.80 341.59
  C 362.45 335.78 366.65 329.67 370.38 323.25
  C 371.89 320.67 373.00 317.87 374.60 315.31
  C 375.69 313.56 376.71 311.68 377.65 309.65
  C 380.07 304.42 382.04 299.80 383.56 295.79
  C 385.61 290.38 387.65 283.04 389.66 273.77
  C 390.35 270.59 390.87 266.22 391.24 260.65
  C 391.37 258.64 392.08 256.33 392.03 254.00
  C 391.96 250.83 391.99 247.65 392.10 244.47"
/>
<path stroke="#f8f6ea" vector-effect="non-scaling-stroke" d="
  M 346.58 397.18
  C 345.20 397.61 343.78 397.78 342.32 397.69
  C 341.71 397.65 341.23 397.47 340.88 397.15
  C 339.66 396.00 340.71 394.51 341.53 393.48
  C 342.00 392.89 342.38 392.27 342.67 391.62"
/>
<path stroke="#828074" vector-effect="non-scaling-stroke" d="
  M 342.67 391.62
  C 343.72 391.74 344.83 391.27 345.99 390.21
  C 348.83 387.62 351.93 385.39 354.74 382.72
  C 355.90 381.62 357.17 380.50 358.56 379.37
  C 362.47 376.20 365.44 372.10 368.83 368.42
  C 374.33 362.45 379.16 356.53 383.31 350.67
  C 388.60 343.20 393.80 334.79 398.91 325.42
  C 402.21 319.37 404.68 312.65 407.35 306.25
  C 408.36 303.82 409.29 300.97 410.12 297.71
  C 411.98 290.44 414.07 283.72 415.36 275.87
  C 416.82 267.06 417.66 259.12 417.87 252.06
  C 418.10 244.55 418.12 236.87 417.92 229.03
  C 417.88 227.25 417.21 225.82 416.88 224.04"
/>
<path stroke="#7ed7da" vector-effect="non-scaling-stroke" d="
  M 310.30 100.53
  L 310.15 111.14"
/>
<path stroke="#106a7a" vector-effect="non-scaling-stroke" d="
  M 310.15 111.14
  L 310.54 117.90"
/>
<path stroke="#86e0f0" vector-effect="non-scaling-stroke" d="
  M 310.54 117.90
  L 310.49 141.62"
/>
<path stroke="#106a7a" vector-effect="non-scaling-stroke" d="
  M 310.49 141.62
  L 310.80 218.02
  C 310.81 219.80 311.70 220.69 313.48 220.70
  C 318.98 220.71 324.54 220.70 330.16 220.67
  C 338.73 220.62 346.50 218.80 354.18 215.64
  C 354.33 215.57 354.40 215.37 354.39 215.03"
/>
<path stroke="#86e0f0" vector-effect="non-scaling-stroke" d="
  M 354.39 215.03
  C 354.73 215.34 355.19 215.34 355.76 215.05
  C 361.48 212.13 366.95 208.29 372.17 203.52"
/>
<path stroke="#106a7a" vector-effect="non-scaling-stroke" d="
  M 372.17 203.52
  L 376.83 198.25"
/>
<path stroke="#7ed7da" vector-effect="non-scaling-stroke" d="
  M 376.83 198.25
  C 379.74 194.72 382.03 191.05 383.70 187.23"
/>
<path stroke="#106a7a" vector-effect="non-scaling-stroke" d="
  M 383.70 187.23
  C 385.79 182.32 387.06 179.00 387.53 177.25
  C 389.27 170.77 390.05 164.07 389.88 157.16"
/>
<path stroke="#106a7a" vector-effect="non-scaling-stroke" d="
  M 335.48 94.66
  L 312.36 94.76
  C 311.30 94.77 310.39 95.52 310.19 96.57
  C 309.93 97.95 309.97 99.27 310.30 100.53"
/>
<path stroke="#828074" vector-effect="non-scaling-stroke" d="
  M 383.70 187.23
  C 382.89 185.12 382.09 183.18 381.28 181.42
  C 380.39 179.45 379.57 177.52 378.84 175.62
  C 376.88 170.53 373.94 165.78 371.31 160.87
  C 368.54 155.71 365.10 150.39 360.97 144.90
  C 359.16 142.49 357.49 140.45 355.94 138.78
  C 354.50 137.22 353.59 135.55 352.04 134.03
  C 349.23 131.29 346.46 128.55 343.74 125.80
  C 341.28 123.31 338.73 120.99 336.09 118.83
  C 333.48 116.71 330.83 114.52 328.13 112.27
  C 325.92 110.42 323.50 109.30 321.23 107.50
  C 317.93 104.88 314.03 102.88 310.30 100.53"
/>
<path stroke="#828074" vector-effect="non-scaling-stroke" d="
  M 376.83 198.25
  C 375.96 195.75 375.56 193.32 374.54 190.98
  C 372.66 186.66 371.55 182.05 369.49 177.83
  C 368.69 176.19 367.84 174.42 366.94 172.53
  C 364.15 166.66 359.59 159.28 353.25 150.37
  C 351.63 148.10 349.60 146.26 347.99 144.12
  C 346.76 142.49 345.47 140.97 344.12 139.57
  C 341.57 136.92 338.85 134.17 335.96 131.31
  C 333.71 129.09 331.22 127.49 328.91 125.30
  C 326.07 122.61 322.56 120.34 319.35 117.75
  C 316.50 115.45 312.99 113.73 310.15 111.14"
/>
<path stroke="#898989" vector-effect="non-scaling-stroke" d="
  M 372.17 203.52
  C 370.40 196.76 368.21 190.04 365.61 183.37
  C 364.64 180.86 363.50 178.43 362.20 176.08
  C 360.88 173.67 359.71 171.22 358.70 168.73
  C 357.60 166.01 355.44 164.10 354.13 161.49
  C 351.78 156.85 348.08 152.96 345.17 148.61
  C 343.72 146.44 341.47 145.54 340.34 143.12
  C 339.88 142.14 339.23 141.33 338.38 140.68
  C 336.69 139.39 335.17 137.87 333.81 136.12
  C 332.23 134.07 329.66 133.22 328.06 131.18
  C 326.38 129.03 324.03 128.05 321.98 126.28
  C 318.48 123.27 314.67 120.48 310.54 117.90"
/>
<path stroke="#898989" vector-effect="non-scaling-stroke" d="
  M 354.39 215.03
  C 354.20 211.73 353.64 208.48 352.70 205.28
  C 349.23 193.48 344.56 182.76 338.67 173.11
  C 334.01 165.48 327.91 157.90 320.36 150.36
  C 318.80 148.79 317.14 147.28 315.39 145.83
  C 313.78 144.50 312.15 143.09 310.49 141.62"
/>
<path stroke="#767676" vector-effect="non-scaling-stroke" d="
  M 112.97 191.39
  C 112.97 191.51 112.87 191.87 112.68 192.47
  C 112.56 192.83 112.50 193.19 112.50 193.56
  C 112.46 212.42 112.38 231.48 112.26 250.74
  C 112.25 253.41 113.57 254.77 116.23 254.83
  C 124.84 255.02 133.26 255.04 141.49 254.89
  C 148.14 254.78 153.94 253.19 158.89 250.14
  C 167.95 244.56 173.44 236.57 175.37 226.18
  C 176.59 219.63 176.27 213.07 174.42 206.49
  C 172.67 200.24 169.40 194.88 164.61 190.42
  C 158.29 184.53 150.29 181.50 140.62 181.33
  C 133.72 181.22 126.39 181.15 118.63 181.13
  C 118.48 181.13 118.35 181.17 118.22 181.26
  C 118.06 181.37 117.90 181.53 117.73 181.72"
/>
<path stroke="#ececec" vector-effect="non-scaling-stroke" d="
  M 117.73 181.72
  C 117.49 181.19 117.00 180.98 116.27 181.09
  C 114.26 181.39 113.01 182.44 112.52 184.23
  C 112.21 185.38 112.36 187.76 112.97 191.39"
/>
<path stroke="#898989" vector-effect="non-scaling-stroke" d="
  M 117.73 181.72
  L 112.97 191.39"
/>
<path stroke="#ececec" vector-effect="non-scaling-stroke" d="
  M 46.98 208.70
  C 46.43 208.74 46.16 208.92 46.15 209.25
  C 46.06 212.08 45.83 214.96 45.47 217.89
  C 43.74 231.76 43.73 246.12 45.43 260.98
  C 46.16 267.33 46.60 273.33 46.75 278.98
  C 46.76 279.05 46.80 279.10 46.87 279.12
  L 47.12 279.20
  C 47.39 279.27 47.65 279.08 47.67 278.81
  C 49.23 255.29 49.76 232.52 49.27 210.50
  C 49.26 209.87 48.99 209.49 48.46 209.36"
/>
<path stroke="#767676" vector-effect="non-scaling-stroke" d="
  M 48.46 209.36
  C 48.92 209.43 49.14 209.22 49.11 208.75
  C 48.93 205.52 48.78 202.29 48.67 199.07
  C 48.67 199.01 48.64 198.98 48.58 198.97
  L 48.32 198.97
  C 48.18 198.96 48.10 199.03 48.07 199.17
  L 46.48 208.08
  C 46.44 208.30 46.52 208.46 46.72 208.57
  L 46.98 208.70"
/>
<path stroke="#898989" vector-effect="non-scaling-stroke" d="
  M 48.46 209.36
  L 46.98 208.70"
/>
</g>
<path fill="#131313" d="
  M 326.58 58.08
  L 309.79 58.02
  C 309.94 57.87 310.06 57.78 310.15 57.76
  C 310.77 57.63 310.78 57.45 310.19 57.22
  C 302.62 54.28 295.04 51.58 287.43 49.12
  C 286.43 48.80 285.37 49.37 285.09 50.38
  L 283.45 56.35
  C 281.82 55.60 280.17 55.05 278.51 54.70
  C 268.02 52.50 257.31 50.93 246.38 49.99
  C 227.98 48.40 210.47 50.20 192.32 53.33
  C 187.71 54.12 183.37 55.10 179.30 56.25
  C 173.03 58.02 168.77 59.30 166.50 60.08
  C 146.63 66.97 128.33 77.17 111.62 90.67
  C 108.10 93.51 104.88 96.72 101.51 99.64
  C 99.28 101.57 96.96 103.90 94.54 106.61
  C 92.54 108.85 90.51 111.06 88.45 113.24
  C 85.67 116.18 83.41 119.44 80.70 122.35
  C 79.00 124.18 77.99 126.48 76.39 128.38
  C 74.40 130.72 72.74 132.88 71.41 134.86
  C 70.86 135.31 69.41 136.22 67.07 137.61
  C 62.95 140.06 59.97 143.62 58.13 148.31
  C 56.57 152.28 56.96 156.10 54.90 160.14
  C 51.45 166.87 48.79 172.66 47.79 180.28
  C 47.06 185.87 45.79 191.59 43.96 197.44
  C 43.27 199.66 43.08 202.12 42.31 204.49
  C 42.20 204.80 42.18 205.13 42.23 205.45
  C 42.48 206.86 42.08 207.71 41.05 208.00
  C 39.00 207.45 36.97 207.34 34.98 207.69
  C 34.63 207.75 34.45 207.96 34.42 208.31
  L 34.00 213.83
  C 33.92 215.70 33.33 217.43 33.30 219.29
  C 33.28 220.98 33.11 222.69 32.79 224.42
  C 32.18 227.73 32.26 230.83 32.23 234.12
  C 32.22 235.44 32.06 237.17 31.75 239.32
  C 31.24 242.85 31.27 246.38 31.85 249.91
  C 32.10 251.41 32.23 252.65 32.24 253.64
  C 32.30 256.85 32.21 259.94 32.61 263.06
  C 33.26 268.05 33.92 272.92 34.59 277.66
  C 35.77 286.11 38.37 293.87 40.53 301.93
  C 41.28 304.72 42.28 307.67 43.53 310.76
  C 44.72 313.67 45.93 316.66 47.18 319.74
  L 47.54 328.92
  C 46.25 326.08 45.00 323.32 43.79 320.63
  C 42.48 317.73 41.27 314.76 40.14 311.71
  C 30.17 284.77 25.96 256.68 27.52 227.44
  C 28.03 217.75 29.09 207.55 31.33 197.83
  C 37.00 173.23 45.50 151.23 58.51 130.74
  C 82.40 93.14 114.85 66.00 155.88 49.31
  C 175.63 41.28 195.44 36.59 215.31 35.24
  C 232.95 34.03 253.81 34.42 271.87 38.24
  C 279.06 39.77 286.52 41.29 293.47 43.89
  C 299.13 46.01 305.10 47.59 310.61 50.05
  C 313.42 51.30 316.21 52.55 318.97 53.79
  C 321.64 54.99 324.03 56.54 326.58 58.08
  Z"
/>
<path fill="#f0ecd4" d="
  M 283.45 56.35
  L 284.05 57.81
  L 272.11 57.99
  C 252.20 53.90 233.45 52.78 215.88 54.63
  C 203.75 55.90 192.22 57.86 181.30 60.51
  C 172.95 62.54 164.03 65.70 154.53 70.01
  C 152.70 70.84 150.83 71.64 148.92 72.41
  C 147.11 73.14 145.33 74.04 143.56 75.11
  C 141.03 76.65 138.48 78.17 135.89 79.66
  C 127.20 84.69 118.87 90.69 110.88 97.65
  C 101.63 105.71 93.42 114.23 86.24 123.20
  C 84.60 125.25 83.02 127.16 81.51 128.94
  C 79.76 131.00 78.39 133.20 76.85 135.47
  C 75.08 135.62 73.26 135.42 71.41 134.86
  C 72.74 132.88 74.40 130.72 76.39 128.38
  C 77.99 126.48 79.00 124.18 80.70 122.35
  C 83.41 119.44 85.67 116.18 88.45 113.24
  C 90.51 111.06 92.54 108.85 94.54 106.61
  C 96.96 103.90 99.28 101.57 101.51 99.64
  C 104.88 96.72 108.10 93.51 111.62 90.67
  C 128.33 77.17 146.63 66.97 166.50 60.08
  C 168.77 59.30 173.03 58.02 179.30 56.25
  C 183.37 55.10 187.71 54.12 192.32 53.33
  C 210.47 50.20 227.98 48.40 246.38 49.99
  C 257.31 50.93 268.02 52.50 278.51 54.70
  C 280.17 55.05 281.82 55.60 283.45 56.35
  Z"
/>
<path fill="#131313" d="
  M 272.11 57.99
  L 261.54 58.48
  C 260.88 58.51 260.36 59.06 260.35 59.73
  L 260.28 82.07
  C 258.92 81.72 257.64 81.42 256.44 81.16
  C 253.87 80.59 251.49 81.02 248.99 80.44
  C 247.89 80.18 246.81 80.05 245.74 80.05
  C 240.02 80.07 234.45 80.04 229.03 79.96
  C 223.60 79.88 218.21 80.22 212.86 80.99
  C 201.18 82.66 189.44 84.50 178.15 88.73
  C 173.89 90.33 169.58 91.30 165.60 93.59
  C 162.02 95.64 157.08 96.45 154.04 99.19
  C 153.28 99.88 152.44 100.39 151.52 100.74
  C 150.79 101.02 150.53 101.92 151.00 102.54
  C 152.27 104.25 153.23 106.32 153.88 108.75
  C 154.02 109.27 154.59 109.53 155.07 109.31
  C 158.35 107.76 161.41 105.85 164.77 104.27
  C 172.08 100.84 177.17 98.67 180.06 97.74
  C 187.71 95.27 195.90 93.23 204.62 91.60
  C 208.81 90.82 213.00 90.54 217.26 90.16
  C 225.43 89.42 233.78 89.77 242.00 89.73
  C 246.04 89.71 252.18 90.38 260.43 91.73
  L 260.38 96.61
  C 255.03 95.47 250.32 94.79 246.25 94.58
  C 234.86 93.99 221.71 93.93 209.68 95.41
  C 197.87 96.86 188.15 99.76 176.79 103.71
  C 173.90 104.72 171.10 105.87 168.41 107.16
  C 165.82 108.40 163.23 109.69 160.66 111.02
  C 156.59 113.13 150.42 117.06 142.16 122.83
  C 140.48 124.00 139.31 125.42 137.65 126.56
  C 134.26 128.90 131.51 132.41 128.43 135.20
  C 127.80 135.51 127.37 135.67 127.12 135.66
  C 110.40 135.33 93.64 135.26 76.85 135.47
  C 78.39 133.20 79.76 131.00 81.51 128.94
  C 83.02 127.16 84.60 125.25 86.24 123.20
  C 93.42 114.23 101.63 105.71 110.88 97.65
  C 118.87 90.69 127.20 84.69 135.89 79.66
  C 138.48 78.17 141.03 76.65 143.56 75.11
  C 145.33 74.04 147.11 73.14 148.92 72.41
  C 150.83 71.64 152.70 70.84 154.53 70.01
  C 164.03 65.70 172.95 62.54 181.30 60.51
  C 192.22 57.86 203.75 55.90 215.88 54.63
  C 233.45 52.78 252.20 53.90 272.11 57.99
  Z"
/>
<path fill="#0cc1e0" d="
  M 284.05 57.81
  C 292.60 58.38 301.18 58.45 309.79 58.02
  L 326.58 58.08
  C 334.53 58.27 342.58 58.32 350.75 58.25
  C 353.49 58.22 357.17 58.56 361.78 59.27
  C 365.82 59.88 369.33 60.63 372.30 61.51
  C 388.49 66.29 402.06 74.42 412.99 85.90
  C 426.72 100.31 434.56 116.78 436.51 135.31
  C 437.58 145.46 437.84 157.54 437.28 171.56
  C 437.11 175.65 436.52 180.19 435.49 185.20
  C 434.56 189.73 433.62 194.17 432.66 198.54
  C 429.46 206.05 425.75 212.73 421.54 218.60
  L 416.88 224.04
  C 416.35 224.59 415.87 225.21 415.46 225.90
  C 414.23 227.97 411.94 229.51 410.30 231.29
  C 409.08 232.61 407.80 233.74 406.47 234.69
  C 403.97 236.46 401.95 238.46 399.18 240.05
  C 396.79 241.42 394.43 242.90 392.10 244.47
  L 382.77 248.77
  L 377.23 251.11
  L 356.56 255.25
  C 352.81 255.68 349.13 255.91 345.50 255.94
  C 318.23 256.12 290.64 256.25 262.72 256.32
  C 262.08 256.33 261.56 255.81 261.55 255.17
  L 260.63 116.32
  L 260.38 96.61
  L 260.43 91.73
  L 260.28 82.07
  L 260.35 59.73
  C 260.36 59.06 260.88 58.51 261.54 58.48
  L 272.11 57.99
  L 284.05 57.81
  Z
  M 310.30 100.53
  L 310.15 111.14
  L 310.54 117.90
  L 310.49 141.62
  L 310.80 218.02
  C 310.81 219.80 311.70 220.69 313.48 220.70
  C 318.98 220.71 324.54 220.70 330.16 220.67
  C 338.73 220.62 346.50 218.80 354.18 215.64
  C 354.33 215.57 354.40 215.37 354.39 215.03
  C 354.73 215.34 355.19 215.34 355.76 215.05
  C 361.48 212.13 366.95 208.29 372.17 203.52
  L 376.83 198.25
  C 379.74 194.72 382.03 191.05 383.70 187.23
  C 385.79 182.32 387.06 179.00 387.53 177.25
  C 389.27 170.77 390.05 164.07 389.88 157.16
  C 390.43 151.09 389.77 144.79 387.89 138.25
  C 382.80 120.52 372.06 107.63 355.67 99.59
  C 349.15 96.40 342.42 94.75 335.48 94.66
  L 312.36 94.76
  C 311.30 94.77 310.39 95.52 310.19 96.57
  C 309.93 97.95 309.97 99.27 310.30 100.53
  Z"
/>
<path fill="#f0ecd4" d="
  M 260.28 82.07
  L 260.43 91.73
  C 252.18 90.38 246.04 89.71 242.00 89.73
  C 233.78 89.77 225.43 89.42 217.26 90.16
  C 213.00 90.54 208.81 90.82 204.62 91.60
  C 195.90 93.23 187.71 95.27 180.06 97.74
  C 177.17 98.67 172.08 100.84 164.77 104.27
  C 161.41 105.85 158.35 107.76 155.07 109.31
  C 154.59 109.53 154.02 109.27 153.88 108.75
  C 153.23 106.32 152.27 104.25 151.00 102.54
  C 150.53 101.92 150.79 101.02 151.52 100.74
  C 152.44 100.39 153.28 99.88 154.04 99.19
  C 157.08 96.45 162.02 95.64 165.60 93.59
  C 169.58 91.30 173.89 90.33 178.15 88.73
  C 189.44 84.50 201.18 82.66 212.86 80.99
  C 218.21 80.22 223.60 79.88 229.03 79.96
  C 234.45 80.04 240.02 80.07 245.74 80.05
  C 246.81 80.05 247.89 80.18 248.99 80.44
  C 251.49 81.02 253.87 80.59 256.44 81.16
  C 257.64 81.42 258.92 81.72 260.28 82.07
  Z"
/>
<path fill="#ffffff" d="
  M 260.38 96.61
  L 260.63 116.32
  C 250.87 114.83 244.66 114.00 242.00 113.81
  C 221.79 112.37 202.35 115.14 183.66 122.13
  C 178.95 123.89 174.69 126.23 170.24 128.27
  C 168.13 129.24 165.93 130.48 163.65 132.00
  C 161.60 133.35 159.46 134.75 157.22 136.19
  L 128.97 135.71
  C 128.81 135.70 128.65 135.62 128.56 135.49
  C 128.50 135.40 128.46 135.31 128.43 135.20
  C 131.51 132.41 134.26 128.90 137.65 126.56
  C 139.31 125.42 140.48 124.00 142.16 122.83
  C 150.42 117.06 156.59 113.13 160.66 111.02
  C 163.23 109.69 165.82 108.40 168.41 107.16
  C 171.10 105.87 173.90 104.72 176.79 103.71
  C 188.15 99.76 197.87 96.86 209.68 95.41
  C 221.71 93.93 234.86 93.99 246.25 94.58
  C 250.32 94.79 255.03 95.47 260.38 96.61
  Z"
/>
<path fill="#131313" d="
  M 335.48 94.66
  C 336.15 95.47 336.95 96.15 337.88 96.71
  C 339.07 97.44 339.91 98.03 340.42 98.50
  C 344.58 102.34 349.01 105.78 353.04 109.64
  C 357.19 113.61 360.45 116.95 362.84 119.67
  C 369.73 127.51 376.19 135.96 382.20 145.03
  C 382.69 145.76 383.92 147.82 385.90 151.19
  C 387.10 153.24 388.43 155.23 389.88 157.16
  C 390.05 164.07 389.27 170.77 387.53 177.25
  C 387.06 179.00 385.79 182.32 383.70 187.23
  C 382.89 185.12 382.09 183.18 381.28 181.42
  C 380.39 179.45 379.57 177.52 378.84 175.62
  C 376.88 170.53 373.94 165.78 371.31 160.87
  C 368.54 155.71 365.10 150.39 360.97 144.90
  C 359.16 142.49 357.49 140.45 355.94 138.78
  C 354.50 137.22 353.59 135.55 352.04 134.03
  C 349.23 131.29 346.46 128.55 343.74 125.80
  C 341.28 123.31 338.73 120.99 336.09 118.83
  C 333.48 116.71 330.83 114.52 328.13 112.27
  C 325.92 110.42 323.50 109.30 321.23 107.50
  C 317.93 104.88 314.03 102.88 310.30 100.53
  C 309.97 99.27 309.93 97.95 310.19 96.57
  C 310.39 95.52 311.30 94.77 312.36 94.76
  L 335.48 94.66
  Z"
/>
<path fill="#f0ecd4" d="
  M 310.30 100.53
  C 314.03 102.88 317.93 104.88 321.23 107.50
  C 323.50 109.30 325.92 110.42 328.13 112.27
  C 330.83 114.52 333.48 116.71 336.09 118.83
  C 338.73 120.99 341.28 123.31 343.74 125.80
  C 346.46 128.55 349.23 131.29 352.04 134.03
  C 353.59 135.55 354.50 137.22 355.94 138.78
  C 357.49 140.45 359.16 142.49 360.97 144.90
  C 365.10 150.39 368.54 155.71 371.31 160.87
  C 373.94 165.78 376.88 170.53 378.84 175.62
  C 379.57 177.52 380.39 179.45 381.28 181.42
  C 382.09 183.18 382.89 185.12 383.70 187.23
  C 382.03 191.05 379.74 194.72 376.83 198.25
  C 375.96 195.75 375.56 193.32 374.54 190.98
  C 372.66 186.66 371.55 182.05 369.49 177.83
  C 368.69 176.19 367.84 174.42 366.94 172.53
  C 364.15 166.66 359.59 159.28 353.25 150.37
  C 351.63 148.10 349.60 146.26 347.99 144.12
  C 346.76 142.49 345.47 140.97 344.12 139.57
  C 341.57 136.92 338.85 134.17 335.96 131.31
  C 333.71 129.09 331.22 127.49 328.91 125.30
  C 326.07 122.61 322.56 120.34 319.35 117.75
  C 316.50 115.45 312.99 113.73 310.15 111.14
  L 310.30 100.53
  Z"
/>
<path fill="#131313" d="
  M 310.15 111.14
  C 312.99 113.73 316.50 115.45 319.35 117.75
  C 322.56 120.34 326.07 122.61 328.91 125.30
  C 331.22 127.49 333.71 129.09 335.96 131.31
  C 338.85 134.17 341.57 136.92 344.12 139.57
  C 345.47 140.97 346.76 142.49 347.99 144.12
  C 349.60 146.26 351.63 148.10 353.25 150.37
  C 359.59 159.28 364.15 166.66 366.94 172.53
  C 367.84 174.42 368.69 176.19 369.49 177.83
  C 371.55 182.05 372.66 186.66 374.54 190.98
  C 375.56 193.32 375.96 195.75 376.83 198.25
  L 372.17 203.52
  C 370.40 196.76 368.21 190.04 365.61 183.37
  C 364.64 180.86 363.50 178.43 362.20 176.08
  C 360.88 173.67 359.71 171.22 358.70 168.73
  C 357.60 166.01 355.44 164.10 354.13 161.49
  C 351.78 156.85 348.08 152.96 345.17 148.61
  C 343.72 146.44 341.47 145.54 340.34 143.12
  C 339.88 142.14 339.23 141.33 338.38 140.68
  C 336.69 139.39 335.17 137.87 333.81 136.12
  C 332.23 134.07 329.66 133.22 328.06 131.18
  C 326.38 129.03 324.03 128.05 321.98 126.28
  C 318.48 123.27 314.67 120.48 310.54 117.90
  L 310.15 111.14
  Z"
/>
<path fill="#131313" d="
  M 260.63 116.32
  L 261.55 255.17
  C 261.56 255.81 262.08 256.33 262.72 256.32
  C 290.64 256.25 318.23 256.12 345.50 255.94
  C 349.13 255.91 352.81 255.68 356.56 255.25
  L 353.73 271.06
  C 353.56 272.04 353.96 272.58 354.95 272.69
  C 359.22 273.13 363.34 273.83 367.31 274.80
  C 368.42 275.07 369.55 275.16 370.69 275.07
  C 371.04 275.04 371.36 275.12 371.65 275.31
  C 372.34 275.77 372.95 275.74 373.50 275.23
  C 373.93 274.84 374.19 274.25 374.28 273.47
  C 374.75 269.36 375.44 265.18 376.33 260.92
  C 377.00 257.74 376.68 254.48 377.23 251.11
  L 382.77 248.77
  C 382.94 255.10 382.42 261.17 381.22 267.00
  C 380.19 272.01 379.14 277.01 378.05 282.00
  C 376.92 287.20 374.00 293.26 372.06 298.45
  C 369.92 304.16 367.10 310.04 363.60 316.07
  C 359.81 322.62 356.11 328.27 352.50 333.02
  C 349.48 337.00 346.09 341.06 342.32 345.20
  C 336.85 351.22 330.21 357.36 322.41 363.61
  C 320.38 365.23 318.20 366.18 316.31 367.87
  C 314.91 369.11 313.37 370.14 311.70 370.96
  C 308.18 372.68 305.14 375.04 301.58 376.76
  C 297.38 378.80 293.11 380.74 288.76 382.58
  C 284.69 384.31 280.55 385.32 276.36 386.81
  C 270.93 388.74 265.31 390.12 259.48 390.95
  C 258.13 389.29 257.11 387.37 256.42 385.18
  C 263.57 384.30 270.22 382.70 276.37 380.37
  C 281.00 378.62 285.75 377.64 290.08 375.27
  C 294.27 372.97 298.52 371.08 302.83 369.60
  C 303.84 369.25 304.21 368.57 303.94 367.54
  C 303.63 366.39 303.21 365.33 302.68 364.35
  C 300.35 360.09 298.12 355.76 295.99 351.37
  C 295.83 351.04 295.59 350.97 295.28 351.15
  C 293.29 352.30 291.25 353.27 289.15 354.06
  C 285.01 355.59 281.55 357.87 277.23 359.26
  C 272.42 360.81 267.51 362.46 262.50 364.23
  C 260.37 364.98 255.44 365.82 247.71 366.75
  C 247.58 366.78 247.43 366.79 247.28 366.77
  C 246.99 366.72 246.79 366.57 246.66 366.30
  C 245.66 364.17 244.55 362.08 243.33 360.03
  C 242.15 358.04 241.00 355.98 239.89 353.86
  C 238.40 351.03 236.87 348.25 235.29 345.51
  C 227.59 332.16 219.37 319.09 210.62 306.38
  C 206.86 300.92 201.87 296.02 196.68 292.00
  C 193.68 289.68 190.20 288.73 188.13 285.28
  C 187.98 285.03 187.97 284.78 188.10 284.53
  C 189.67 281.45 194.78 279.88 197.83 278.60
  C 199.86 277.75 201.99 276.67 204.23 275.38
  C 212.58 270.53 220.00 264.86 226.47 258.38
  C 228.08 256.76 229.22 254.88 230.79 253.21
  C 231.91 252.01 232.90 250.72 233.75 249.33
  C 236.23 245.29 239.21 241.09 240.71 236.61
  C 242.06 232.55 243.75 228.58 244.66 224.36
  C 248.11 208.33 245.51 192.99 239.64 177.81
  C 238.86 175.78 237.87 173.74 236.67 171.69
  C 235.58 169.82 234.49 168.08 233.41 166.46
  C 230.67 162.36 227.24 158.67 223.11 155.40
  C 216.57 150.23 208.87 145.84 200.01 142.25
  C 195.40 140.37 190.42 139.53 185.51 138.28
  C 183.37 137.73 179.70 137.38 174.49 137.21
  C 168.90 137.04 163.14 136.70 157.22 136.19
  C 159.46 134.75 161.60 133.35 163.65 132.00
  C 165.93 130.48 168.13 129.24 170.24 128.27
  C 174.69 126.23 178.95 123.89 183.66 122.13
  C 202.35 115.14 221.79 112.37 242.00 113.81
  C 244.66 114.00 250.87 114.83 260.63 116.32
  Z"
/>
<path fill="#ffffff" d="
  M 310.54 117.90
  C 314.67 120.48 318.48 123.27 321.98 126.28
  C 324.03 128.05 326.38 129.03 328.06 131.18
  C 329.66 133.22 332.23 134.07 333.81 136.12
  C 335.17 137.87 336.69 139.39 338.38 140.68
  C 339.23 141.33 339.88 142.14 340.34 143.12
  C 341.47 145.54 343.72 146.44 345.17 148.61
  C 348.08 152.96 351.78 156.85 354.13 161.49
  C 355.44 164.10 357.60 166.01 358.70 168.73
  C 359.71 171.22 360.88 173.67 362.20 176.08
  C 363.50 178.43 364.64 180.86 365.61 183.37
  C 368.21 190.04 370.40 196.76 372.17 203.52
  C 366.95 208.29 361.48 212.13 355.76 215.05
  C 355.19 215.34 354.73 215.34 354.39 215.03
  C 354.20 211.73 353.64 208.48 352.70 205.28
  C 349.23 193.48 344.56 182.76 338.67 173.11
  C 334.01 165.48 327.91 157.90 320.36 150.36
  C 318.80 148.79 317.14 147.28 315.39 145.83
  C 313.78 144.50 312.15 143.09 310.49 141.62
  L 310.54 117.90
  Z"
/>
<path fill="#d9d9d9" d="
  M 71.41 134.86
  C 73.26 135.42 75.08 135.62 76.85 135.47
  C 93.64 135.26 110.40 135.33 127.12 135.66
  C 127.37 135.67 127.80 135.51 128.43 135.20
  C 128.46 135.31 128.50 135.40 128.56 135.49
  C 128.65 135.62 128.81 135.70 128.97 135.71
  L 157.22 136.19
  C 163.14 136.70 168.90 137.04 174.49 137.21
  C 179.70 137.38 183.37 137.73 185.51 138.28
  C 190.42 139.53 195.40 140.37 200.01 142.25
  C 208.87 145.84 216.57 150.23 223.11 155.40
  C 227.24 158.67 230.67 162.36 233.41 166.46
  C 234.49 168.08 235.58 169.82 236.67 171.69
  C 237.87 173.74 238.86 175.78 239.64 177.81
  C 245.51 192.99 248.11 208.33 244.66 224.36
  C 243.75 228.58 242.06 232.55 240.71 236.61
  C 239.21 241.09 236.23 245.29 233.75 249.33
  C 232.90 250.72 231.91 252.01 230.79 253.21
  C 229.22 254.88 228.08 256.76 226.47 258.38
  C 220.00 264.86 212.58 270.53 204.23 275.38
  C 201.99 276.67 199.86 277.75 197.83 278.60
  C 194.78 279.88 189.67 281.45 188.10 284.53
  C 187.97 284.78 187.98 285.03 188.13 285.28
  C 190.20 288.73 193.68 289.68 196.68 292.00
  C 201.87 296.02 206.86 300.92 210.62 306.38
  C 219.37 319.09 227.59 332.16 235.29 345.51
  C 236.87 348.25 238.40 351.03 239.89 353.86
  C 241.00 355.98 242.15 358.04 243.33 360.03
  C 244.55 362.08 245.66 364.17 246.66 366.30
  C 246.79 366.57 246.99 366.72 247.28 366.77
  C 247.43 366.79 247.58 366.78 247.71 366.75
  C 247.62 367.47 247.49 368.19 247.86 368.87
  C 250.81 374.34 253.67 379.77 256.42 385.18
  C 257.11 387.37 258.13 389.29 259.48 390.95
  C 259.87 394.22 261.11 397.19 263.20 399.85
  C 263.25 400.52 263.52 401.25 264.01 402.02
  C 264.36 402.56 264.47 403.00 264.36 403.33
  C 264.24 403.68 263.99 403.87 263.62 403.88
  C 243.29 404.43 221.41 405.00 198.00 405.59
  C 193.57 405.70 192.64 402.31 191.15 398.89
  C 190.99 398.52 190.65 398.27 190.25 398.22
  L 189.06 398.05
  C 189.48 398.16 189.82 398.14 190.09 398.01
  C 190.33 397.89 190.46 397.62 190.39 397.36
  C 189.30 393.27 187.68 389.80 185.52 386.95
  C 184.73 384.75 183.80 382.61 182.72 380.54
  C 182.60 380.31 182.18 379.98 181.46 379.55
  C 181.72 379.20 181.80 378.94 181.69 378.77
  C 179.71 375.49 178.27 371.43 176.63 368.41
  C 174.49 364.46 172.29 360.32 170.04 355.97
  C 169.29 354.52 168.05 353.12 167.29 351.57
  C 165.02 346.06 161.27 340.05 159.10 336.11
  C 157.52 333.23 155.89 330.34 154.21 327.45
  C 152.53 324.56 150.69 321.95 148.68 319.64
  C 145.53 316.03 142.42 312.99 139.34 310.54
  C 137.66 309.21 135.81 307.82 133.80 306.39
  C 131.34 304.65 128.62 302.88 125.95 301.82
  C 124.26 301.14 119.87 300.36 118.36 302.03
  C 118.31 301.91 118.19 301.83 118.01 301.80
  C 117.89 301.78 117.76 301.80 117.61 301.87
  C 113.15 304.10 110.86 307.80 110.74 312.98
  C 110.61 318.62 110.72 323.19 111.09 326.69
  C 110.40 330.10 110.49 333.00 111.38 335.40
  C 110.83 335.87 110.58 336.38 110.63 336.92
  C 110.67 337.33 110.69 337.56 110.68 337.61
  C 110.52 340.98 110.50 344.36 110.63 347.75
  C 110.64 348.07 110.82 348.64 111.15 349.47
  C 110.90 349.80 110.78 350.06 110.77 350.25
  C 110.73 353.68 110.75 361.68 110.84 374.25
  C 110.84 374.55 110.88 374.90 110.95 375.29
  C 110.73 375.38 110.62 375.54 110.63 375.75
  C 110.80 383.33 110.82 390.91 110.71 398.50
  C 110.70 399.29 110.87 400.35 111.24 401.68
  C 110.82 402.08 110.55 402.68 110.42 403.49
  C 110.31 404.20 110.05 404.42 109.66 404.15
  C 93.33 404.47 74.69 404.48 53.75 404.19
  C 50.93 404.15 48.41 404.17 48.36 400.50
  C 48.05 376.51 47.77 352.65 47.54 328.92
  L 47.18 319.74
  C 47.41 312.67 47.51 305.76 47.49 299.00
  C 47.49 296.37 47.11 293.84 46.35 291.43
  C 45.02 287.16 44.34 284.99 44.33 284.92
  C 42.70 278.01 41.72 273.12 41.39 270.25
  C 39.10 250.12 39.08 229.70 41.32 209.00
  C 41.35 208.68 41.17 208.56 40.78 208.65
  L 41.05 208.00
  C 42.08 207.71 42.48 206.86 42.23 205.45
  C 42.18 205.13 42.20 204.80 42.31 204.49
  C 43.08 202.12 43.27 199.66 43.96 197.44
  C 45.79 191.59 47.06 185.87 47.79 180.28
  C 48.79 172.66 51.45 166.87 54.90 160.14
  C 56.96 156.10 56.57 152.28 58.13 148.31
  C 59.97 143.62 62.95 140.06 67.07 137.61
  C 69.41 136.22 70.86 135.31 71.41 134.86
  Z
  M 112.97 191.39
  C 112.97 191.51 112.87 191.87 112.68 192.47
  C 112.56 192.83 112.50 193.19 112.50 193.56
  C 112.46 212.42 112.38 231.48 112.26 250.74
  C 112.25 253.41 113.57 254.77 116.23 254.83
  C 124.84 255.02 133.26 255.04 141.49 254.89
  C 148.14 254.78 153.94 253.19 158.89 250.14
  C 167.95 244.56 173.44 236.57 175.37 226.18
  C 176.59 219.63 176.27 213.07 174.42 206.49
  C 172.67 200.24 169.40 194.88 164.61 190.42
  C 158.29 184.53 150.29 181.50 140.62 181.33
  C 133.72 181.22 126.39 181.15 118.63 181.13
  C 118.48 181.13 118.35 181.17 118.22 181.26
  C 118.06 181.37 117.90 181.53 117.73 181.72
  C 117.49 181.19 117.00 180.98 116.27 181.09
  C 114.26 181.39 113.01 182.44 112.52 184.23
  C 112.21 185.38 112.36 187.76 112.97 191.39
  Z
  M 46.98 208.70
  C 46.43 208.74 46.16 208.92 46.15 209.25
  C 46.06 212.08 45.83 214.96 45.47 217.89
  C 43.74 231.76 43.73 246.12 45.43 260.98
  C 46.16 267.33 46.60 273.33 46.75 278.98
  C 46.76 279.05 46.80 279.10 46.87 279.12
  L 47.12 279.20
  C 47.39 279.27 47.65 279.08 47.67 278.81
  C 49.23 255.29 49.76 232.52 49.27 210.50
  C 49.26 209.87 48.99 209.49 48.46 209.36
  C 48.92 209.43 49.14 209.22 49.11 208.75
  C 48.93 205.52 48.78 202.29 48.67 199.07
  C 48.67 199.01 48.64 198.98 48.58 198.97
  L 48.32 198.97
  C 48.18 198.96 48.10 199.03 48.07 199.17
  L 46.48 208.08
  C 46.44 208.30 46.52 208.46 46.72 208.57
  L 46.98 208.70
  Z"
/>
<path fill="#131313" d="
  M 310.49 141.62
  C 312.15 143.09 313.78 144.50 315.39 145.83
  C 317.14 147.28 318.80 148.79 320.36 150.36
  C 327.91 157.90 334.01 165.48 338.67 173.11
  C 344.56 182.76 349.23 193.48 352.70 205.28
  C 353.64 208.48 354.20 211.73 354.39 215.03
  C 354.40 215.37 354.33 215.57 354.18 215.64
  C 346.50 218.80 338.73 220.62 330.16 220.67
  C 324.54 220.70 318.98 220.71 313.48 220.70
  C 311.70 220.69 310.81 219.80 310.80 218.02
  L 310.49 141.62
  Z"
/>
<path fill="#ffffff" d="
  M 117.73 181.72
  L 112.97 191.39
  C 112.36 187.76 112.21 185.38 112.52 184.23
  C 113.01 182.44 114.26 181.39 116.27 181.09
  C 117.00 180.98 117.49 181.19 117.73 181.72
  Z"
/>
<path fill="#131313" d="
  M 112.97 191.39
  L 117.73 181.72
  C 117.90 181.53 118.06 181.37 118.22 181.26
  C 118.35 181.17 118.48 181.13 118.63 181.13
  C 126.39 181.15 133.72 181.22 140.62 181.33
  C 150.29 181.50 158.29 184.53 164.61 190.42
  C 169.40 194.88 172.67 200.24 174.42 206.49
  C 176.27 213.07 176.59 219.63 175.37 226.18
  C 173.44 236.57 167.95 244.56 158.89 250.14
  C 153.94 253.19 148.14 254.78 141.49 254.89
  C 133.26 255.04 124.84 255.02 116.23 254.83
  C 113.57 254.77 112.25 253.41 112.26 250.74
  C 112.38 231.48 112.46 212.42 112.50 193.56
  C 112.50 193.19 112.56 192.83 112.68 192.47
  C 112.87 191.87 112.97 191.51 112.97 191.39
  Z"
/>
<path fill="#131313" d="
  M 432.66 198.54
  C 434.87 210.53 436.14 222.02 436.49 233.01
  C 437.21 255.84 434.16 278.23 427.35 300.18
  C 419.26 326.23 406.20 350.00 388.15 371.49
  C 372.78 389.80 354.23 405.22 332.52 417.74
  C 327.39 420.69 321.91 423.23 316.64 425.89
  C 314.59 426.93 312.42 427.88 310.15 428.75
  C 304.00 431.11 298.37 433.34 291.83 435.11
  C 286.46 436.56 281.27 438.04 276.27 439.55
  C 274.38 440.13 272.85 439.94 271.02 440.26
  C 254.99 443.06 239.34 444.24 224.06 443.80
  C 221.69 443.73 219.29 443.57 216.86 443.30
  C 213.72 442.96 210.58 443.09 207.45 442.55
  C 203.30 441.84 199.08 441.20 194.81 440.65
  C 191.20 440.19 187.73 439.53 184.39 438.68
  C 175.19 436.35 167.87 434.15 162.42 432.10
  C 159.79 431.11 157.08 430.08 154.31 429.02
  C 151.55 427.97 148.78 426.77 145.99 425.42
  C 139.37 422.21 132.72 418.71 126.04 414.90
  C 123.18 413.28 120.78 411.32 117.98 409.69
  C 116.58 408.88 115.18 407.97 113.79 406.97
  C 112.48 406.04 111.11 405.10 109.66 404.15
  C 110.05 404.42 110.31 404.20 110.42 403.49
  C 110.55 402.68 110.82 402.08 111.24 401.68
  C 119.53 407.69 125.93 411.98 130.42 414.57
  C 135.19 417.30 141.94 420.69 150.69 424.72
  C 156.44 427.36 161.79 428.94 167.53 430.96
  C 171.49 432.35 175.72 433.59 180.23 434.67
  C 187.38 436.38 194.25 437.79 200.82 438.92
  C 209.96 440.48 219.25 440.76 228.75 441.17
  C 233.45 441.38 238.49 441.38 243.17 440.94
  C 247.51 440.52 251.83 440.62 256.18 440.08
  C 266.09 438.85 273.88 436.93 282.60 434.88
  C 286.65 433.93 290.37 432.82 293.76 431.57
  C 300.04 429.25 306.19 427.53 312.10 424.08
  C 314.66 422.58 317.50 421.88 320.06 420.50
  C 330.01 415.13 339.70 409.11 349.15 402.43
  C 349.54 402.16 349.61 401.82 349.34 401.41
  L 346.58 397.18
  L 346.32 396.59
  C 346.20 396.30 346.28 395.96 346.53 395.76
  C 362.74 383.06 376.74 368.30 388.53 351.49
  C 390.28 349.00 391.67 346.44 393.40 343.93
  C 396.09 340.03 397.98 335.98 400.51 332.06
  C 403.50 327.47 405.53 322.17 407.96 317.11
  C 409.77 313.33 410.93 309.18 412.64 305.19
  C 413.75 302.59 414.73 299.60 415.58 296.23
  C 417.09 290.15 418.48 284.24 419.75 278.49
  C 420.80 273.69 421.52 266.98 421.90 258.36
  C 421.98 256.60 422.59 254.96 422.60 253.27
  C 422.63 247.12 422.63 241.02 422.60 234.97
  C 422.59 232.60 422.41 229.85 422.06 226.72
  C 421.77 224.16 421.59 221.45 421.54 218.60
  C 425.75 212.73 429.46 206.05 432.66 198.54
  Z"
/>
<path fill="#131313" d="
  M 48.46 209.36
  L 46.98 208.70
  L 46.72 208.57
  C 46.52 208.46 46.44 208.30 46.48 208.08
  L 48.07 199.17
  C 48.10 199.03 48.18 198.96 48.32 198.97
  L 48.58 198.97
  C 48.64 198.98 48.67 199.01 48.67 199.07
  C 48.78 202.29 48.93 205.52 49.11 208.75
  C 49.14 209.22 48.92 209.43 48.46 209.36
  Z"
/>
<path fill="#ffffff" d="
  M 40.78 208.65
  C 41.17 208.56 41.35 208.68 41.32 209.00
  C 39.08 229.70 39.10 250.12 41.39 270.25
  C 41.72 273.12 42.70 278.01 44.33 284.92
  C 44.34 284.99 45.02 287.16 46.35 291.43
  C 47.11 293.84 47.49 296.37 47.49 299.00
  C 47.51 305.76 47.41 312.67 47.18 319.74
  C 45.93 316.66 44.72 313.67 43.53 310.76
  C 42.28 307.67 41.28 304.72 40.53 301.93
  C 38.37 293.87 35.77 286.11 34.59 277.66
  C 33.92 272.92 33.26 268.05 32.61 263.06
  C 32.21 259.94 32.30 256.85 32.24 253.64
  C 32.23 252.65 32.10 251.41 31.85 249.91
  C 31.27 246.38 31.24 242.85 31.75 239.32
  C 32.06 237.17 32.22 235.44 32.23 234.12
  C 32.26 230.83 32.18 227.73 32.79 224.42
  C 33.11 222.69 33.28 220.98 33.30 219.29
  C 33.33 217.43 33.92 215.70 34.00 213.83
  L 40.78 208.65
  Z"
/>
<path fill="#ffffff" d="
  M 46.98 208.70
  L 48.46 209.36
  C 48.99 209.49 49.26 209.87 49.27 210.50
  C 49.76 232.52 49.23 255.29 47.67 278.81
  C 47.65 279.08 47.39 279.27 47.12 279.20
  L 46.87 279.12
  C 46.80 279.10 46.76 279.05 46.75 278.98
  C 46.60 273.33 46.16 267.33 45.43 260.98
  C 43.73 246.12 43.74 231.76 45.47 217.89
  C 45.83 214.96 46.06 212.08 46.15 209.25
  C 46.16 208.92 46.43 208.74 46.98 208.70
  Z"
/>
<path fill="#f0ecd4" d="
  M 421.54 218.60
  C 421.59 221.45 421.77 224.16 422.06 226.72
  C 422.41 229.85 422.59 232.60 422.60 234.97
  C 422.63 241.02 422.63 247.12 422.60 253.27
  C 422.59 254.96 421.98 256.60 421.90 258.36
  C 421.52 266.98 420.80 273.69 419.75 278.49
  C 418.48 284.24 417.09 290.15 415.58 296.23
  C 414.73 299.60 413.75 302.59 412.64 305.19
  C 410.93 309.18 409.77 313.33 407.96 317.11
  C 405.53 322.17 403.50 327.47 400.51 332.06
  C 397.98 335.98 396.09 340.03 393.40 343.93
  C 391.67 346.44 390.28 349.00 388.53 351.49
  C 376.74 368.30 362.74 383.06 346.53 395.76
  C 346.28 395.96 346.20 396.30 346.32 396.59
  L 346.58 397.18
  C 345.20 397.61 343.78 397.78 342.32 397.69
  C 341.71 397.65 341.23 397.47 340.88 397.15
  C 339.66 396.00 340.71 394.51 341.53 393.48
  C 342.00 392.89 342.38 392.27 342.67 391.62
  C 343.72 391.74 344.83 391.27 345.99 390.21
  C 348.83 387.62 351.93 385.39 354.74 382.72
  C 355.90 381.62 357.17 380.50 358.56 379.37
  C 362.47 376.20 365.44 372.10 368.83 368.42
  C 374.33 362.45 379.16 356.53 383.31 350.67
  C 388.60 343.20 393.80 334.79 398.91 325.42
  C 402.21 319.37 404.68 312.65 407.35 306.25
  C 408.36 303.82 409.29 300.97 410.12 297.71
  C 411.98 290.44 414.07 283.72 415.36 275.87
  C 416.82 267.06 417.66 259.12 417.87 252.06
  C 418.10 244.55 418.12 236.87 417.92 229.03
  C 417.88 227.25 417.21 225.82 416.88 224.04
  L 421.54 218.60
  Z"
/>
<path fill="#131313" d="
  M 416.88 224.04
  C 417.21 225.82 417.88 227.25 417.92 229.03
  C 418.12 236.87 418.10 244.55 417.87 252.06
  C 417.66 259.12 416.82 267.06 415.36 275.87
  C 414.07 283.72 411.98 290.44 410.12 297.71
  C 409.29 300.97 408.36 303.82 407.35 306.25
  C 404.68 312.65 402.21 319.37 398.91 325.42
  C 393.80 334.79 388.60 343.20 383.31 350.67
  C 379.16 356.53 374.33 362.45 368.83 368.42
  C 365.44 372.10 362.47 376.20 358.56 379.37
  C 357.17 380.50 355.90 381.62 354.74 382.72
  C 351.93 385.39 348.83 387.62 345.99 390.21
  C 344.83 391.27 343.72 391.74 342.67 391.62
  C 341.37 390.06 340.39 388.45 339.74 386.78
  C 339.54 386.26 338.91 386.07 338.44 386.37
  C 335.12 388.54 331.79 390.75 328.44 393.00
  C 324.28 395.79 319.98 398.03 315.73 400.71
  C 312.40 402.82 308.69 404.04 305.31 405.93
  C 299.62 409.10 293.19 410.94 287.15 413.28
  C 282.10 415.24 276.64 415.92 271.36 417.39
  C 267.39 418.50 263.23 419.37 258.88 420.01
  C 246.63 421.79 234.53 422.27 222.56 421.46
  C 201.79 420.04 181.61 415.53 162.04 407.93
  C 160.48 407.32 158.92 406.65 157.37 405.92
  C 153.39 404.02 149.46 402.53 145.55 400.31
  C 139.62 396.93 133.53 393.05 127.28 388.67
  C 121.23 384.43 115.78 379.97 110.95 375.29
  C 110.88 374.90 110.84 374.55 110.84 374.25
  C 110.75 361.68 110.73 353.68 110.77 350.25
  C 110.78 350.06 110.90 349.80 111.15 349.47
  C 111.54 350.40 111.89 351.01 112.18 351.28
  C 114.11 353.11 115.99 354.99 117.81 356.94
  C 119.52 358.77 121.52 359.89 123.27 361.62
  C 124.46 362.79 125.70 363.91 127.01 364.97
  C 134.24 370.88 142.08 376.46 150.53 381.69
  C 152.20 382.74 154.34 383.88 156.94 385.11
  C 160.86 386.96 164.40 389.10 168.68 390.88
  C 170.05 391.45 171.82 392.22 174.00 393.21
  C 176.19 394.20 181.21 395.82 189.06 398.05
  L 190.25 398.22
  C 190.65 398.27 190.99 398.52 191.15 398.89
  C 192.64 402.31 193.57 405.70 198.00 405.59
  C 221.41 405.00 243.29 404.43 263.62 403.88
  C 263.99 403.87 264.24 403.68 264.36 403.33
  C 264.47 403.00 264.36 402.56 264.01 402.02
  C 263.52 401.25 263.25 400.52 263.20 399.85
  C 273.19 397.88 281.82 395.46 289.07 392.59
  C 291.31 391.70 293.12 391.00 294.51 390.49
  C 298.84 388.90 302.44 386.76 306.49 384.83
  C 308.63 383.81 310.78 382.65 312.94 381.35
  C 320.88 376.60 328.49 371.13 335.76 364.95
  C 340.13 361.25 344.29 356.96 348.31 352.75
  C 349.98 351.00 351.61 349.18 353.18 347.27
  C 354.73 345.40 356.27 343.50 357.80 341.59
  C 362.45 335.78 366.65 329.67 370.38 323.25
  C 371.89 320.67 373.00 317.87 374.60 315.31
  C 375.69 313.56 376.71 311.68 377.65 309.65
  C 380.07 304.42 382.04 299.80 383.56 295.79
  C 385.61 290.38 387.65 283.04 389.66 273.77
  C 390.35 270.59 390.87 266.22 391.24 260.65
  C 391.37 258.64 392.08 256.33 392.03 254.00
  C 391.96 250.83 391.99 247.65 392.10 244.47
  C 394.43 242.90 396.79 241.42 399.18 240.05
  C 401.95 238.46 403.97 236.46 406.47 234.69
  C 407.80 233.74 409.08 232.61 410.30 231.29
  C 411.94 229.51 414.23 227.97 415.46 225.90
  C 415.87 225.21 416.35 224.59 416.88 224.04
  Z"
/>
<path fill="#f0ecd4" d="
  M 392.10 244.47
  C 391.99 247.65 391.96 250.83 392.03 254.00
  C 392.08 256.33 391.37 258.64 391.24 260.65
  C 390.87 266.22 390.35 270.59 389.66 273.77
  C 387.65 283.04 385.61 290.38 383.56 295.79
  C 382.04 299.80 380.07 304.42 377.65 309.65
  C 376.71 311.68 375.69 313.56 374.60 315.31
  C 373.00 317.87 371.89 320.67 370.38 323.25
  C 366.65 329.67 362.45 335.78 357.80 341.59
  C 356.27 343.50 354.73 345.40 353.18 347.27
  C 351.61 349.18 349.98 351.00 348.31 352.75
  C 344.29 356.96 340.13 361.25 335.76 364.95
  C 328.49 371.13 320.88 376.60 312.94 381.35
  C 310.78 382.65 308.63 383.81 306.49 384.83
  C 302.44 386.76 298.84 388.90 294.51 390.49
  C 293.12 391.00 291.31 391.70 289.07 392.59
  C 281.82 395.46 273.19 397.88 263.20 399.85
  C 261.11 397.19 259.87 394.22 259.48 390.95
  C 265.31 390.12 270.93 388.74 276.36 386.81
  C 280.55 385.32 284.69 384.31 288.76 382.58
  C 293.11 380.74 297.38 378.80 301.58 376.76
  C 305.14 375.04 308.18 372.68 311.70 370.96
  C 313.37 370.14 314.91 369.11 316.31 367.87
  C 318.20 366.18 320.38 365.23 322.41 363.61
  C 330.21 357.36 336.85 351.22 342.32 345.20
  C 346.09 341.06 349.48 337.00 352.50 333.02
  C 356.11 328.27 359.81 322.62 363.60 316.07
  C 367.10 310.04 369.92 304.16 372.06 298.45
  C 374.00 293.26 376.92 287.20 378.05 282.00
  C 379.14 277.01 380.19 272.01 381.22 267.00
  C 382.42 261.17 382.94 255.10 382.77 248.77
  L 392.10 244.47
  Z"
/>
<path fill="#131313" d="
  M 167.29 351.57
  C 164.50 349.40 161.63 347.48 158.66 345.82
  C 157.47 345.16 156.40 344.41 155.46 343.58
  C 152.94 341.36 150.03 339.69 147.56 337.50
  C 142.17 332.70 137.08 327.59 132.31 322.18
  C 129.30 318.76 126.61 314.65 123.81 310.82
  C 123.09 309.84 122.21 308.36 121.18 306.39
  C 120.39 304.85 119.45 303.40 118.36 302.03
  C 119.87 300.36 124.26 301.14 125.95 301.82
  C 128.62 302.88 131.34 304.65 133.80 306.39
  C 135.81 307.82 137.66 309.21 139.34 310.54
  C 142.42 312.99 145.53 316.03 148.68 319.64
  C 150.69 321.95 152.53 324.56 154.21 327.45
  C 155.89 330.34 157.52 333.23 159.10 336.11
  C 161.27 340.05 165.02 346.06 167.29 351.57
  Z"
/>
<path fill="#ffffff" d="
  M 118.36 302.03
  C 119.45 303.40 120.39 304.85 121.18 306.39
  C 122.21 308.36 123.09 309.84 123.81 310.82
  C 126.61 314.65 129.30 318.76 132.31 322.18
  C 137.08 327.59 142.17 332.70 147.56 337.50
  C 150.03 339.69 152.94 341.36 155.46 343.58
  C 156.40 344.41 157.47 345.16 158.66 345.82
  C 161.63 347.48 164.50 349.40 167.29 351.57
  C 168.05 353.12 169.29 354.52 170.04 355.97
  C 172.29 360.32 174.49 364.46 176.63 368.41
  C 178.27 371.43 179.71 375.49 181.69 378.77
  C 181.80 378.94 181.72 379.20 181.46 379.55
  C 178.18 378.58 174.96 377.52 171.96 375.84
  C 168.87 374.11 165.68 372.43 162.37 370.82
  C 156.98 368.19 150.36 364.03 142.53 358.34
  C 140.46 356.83 138.43 355.26 136.46 353.62
  C 130.96 349.07 126.12 343.86 120.97 338.78
  C 118.02 335.87 114.73 331.84 111.09 326.69
  C 110.72 323.19 110.61 318.62 110.74 312.98
  C 110.86 307.80 113.15 304.10 117.61 301.87
  C 117.76 301.80 117.89 301.78 118.01 301.80
  C 118.19 301.83 118.31 301.91 118.36 302.03
  Z"
/>
<path fill="#131313" d="
  M 111.09 326.69
  C 114.73 331.84 118.02 335.87 120.97 338.78
  C 126.12 343.86 130.96 349.07 136.46 353.62
  C 138.43 355.26 140.46 356.83 142.53 358.34
  C 150.36 364.03 156.98 368.19 162.37 370.82
  C 165.68 372.43 168.87 374.11 171.96 375.84
  C 174.96 377.52 178.18 378.58 181.46 379.55
  C 182.18 379.98 182.60 380.31 182.72 380.54
  C 183.80 382.61 184.73 384.75 185.52 386.95
  C 182.83 386.04 180.24 385.19 177.77 384.40
  C 175.10 383.54 172.62 382.51 170.33 381.30
  C 167.19 379.65 163.93 378.64 160.81 376.76
  C 156.26 374.01 152.13 371.44 148.44 369.04
  C 143.89 366.09 139.00 362.48 133.75 358.20
  C 132.24 356.97 130.94 355.78 129.84 354.64
  C 128.62 353.37 127.34 352.21 126.00 351.14
  C 124.03 349.57 122.19 347.79 120.48 345.79
  C 117.51 342.32 114.47 338.85 111.38 335.40
  C 110.49 333.00 110.40 330.10 111.09 326.69
  Z"
/>
<path fill="#f0ecd4" d="
  M 111.38 335.40
  C 114.47 338.85 117.51 342.32 120.48 345.79
  C 122.19 347.79 124.03 349.57 126.00 351.14
  C 127.34 352.21 128.62 353.37 129.84 354.64
  C 130.94 355.78 132.24 356.97 133.75 358.20
  C 139.00 362.48 143.89 366.09 148.44 369.04
  C 152.13 371.44 156.26 374.01 160.81 376.76
  C 163.93 378.64 167.19 379.65 170.33 381.30
  C 172.62 382.51 175.10 383.54 177.77 384.40
  C 180.24 385.19 182.83 386.04 185.52 386.95
  C 187.68 389.80 189.30 393.27 190.39 397.36
  C 190.46 397.62 190.33 397.89 190.09 398.01
  C 189.82 398.14 189.48 398.16 189.06 398.05
  C 181.21 395.82 176.19 394.20 174.00 393.21
  C 171.82 392.22 170.05 391.45 168.68 390.88
  C 164.40 389.10 160.86 386.96 156.94 385.11
  C 154.34 383.88 152.20 382.74 150.53 381.69
  C 142.08 376.46 134.24 370.88 127.01 364.97
  C 125.70 363.91 124.46 362.79 123.27 361.62
  C 121.52 359.89 119.52 358.77 117.81 356.94
  C 115.99 354.99 114.11 353.11 112.18 351.28
  C 111.89 351.01 111.54 350.40 111.15 349.47
  C 110.82 348.64 110.64 348.07 110.63 347.75
  C 110.50 344.36 110.52 340.98 110.68 337.61
  C 110.69 337.56 110.67 337.33 110.63 336.92
  C 110.58 336.38 110.83 335.87 111.38 335.40
  Z"
/>
<path fill="#ffffff" d="
  M 256.42 385.18
  C 253.67 379.77 250.81 374.34 247.86 368.87
  C 247.49 368.19 247.62 367.47 247.71 366.75
  C 255.44 365.82 260.37 364.98 262.50 364.23
  C 267.51 362.46 272.42 360.81 277.23 359.26
  C 281.55 357.87 285.01 355.59 289.15 354.06
  C 291.25 353.27 293.29 352.30 295.28 351.15
  C 295.59 350.97 295.83 351.04 295.99 351.37
  C 298.12 355.76 300.35 360.09 302.68 364.35
  C 303.21 365.33 303.63 366.39 303.94 367.54
  C 304.21 368.57 303.84 369.25 302.83 369.60
  C 298.52 371.08 294.27 372.97 290.08 375.27
  C 285.75 377.64 281.00 378.62 276.37 380.37
  C 270.22 382.70 263.57 384.30 256.42 385.18
  Z"
/>
<path fill="#ffffff" d="
  M 110.95 375.29
  C 115.78 379.97 121.23 384.43 127.28 388.67
  C 133.53 393.05 139.62 396.93 145.55 400.31
  C 149.46 402.53 153.39 404.02 157.37 405.92
  C 158.92 406.65 160.48 407.32 162.04 407.93
  C 181.61 415.53 201.79 420.04 222.56 421.46
  C 234.53 422.27 246.63 421.79 258.88 420.01
  C 263.23 419.37 267.39 418.50 271.36 417.39
  C 276.64 415.92 282.10 415.24 287.15 413.28
  C 293.19 410.94 299.62 409.10 305.31 405.93
  C 308.69 404.04 312.40 402.82 315.73 400.71
  C 319.98 398.03 324.28 395.79 328.44 393.00
  C 331.79 390.75 335.12 388.54 338.44 386.37
  C 338.91 386.07 339.54 386.26 339.74 386.78
  C 340.39 388.45 341.37 390.06 342.67 391.62
  C 342.38 392.27 342.00 392.89 341.53 393.48
  C 340.71 394.51 339.66 396.00 340.88 397.15
  C 341.23 397.47 341.71 397.65 342.32 397.69
  C 343.78 397.78 345.20 397.61 346.58 397.18
  L 349.34 401.41
  C 349.61 401.82 349.54 402.16 349.15 402.43
  C 339.70 409.11 330.01 415.13 320.06 420.50
  C 317.50 421.88 314.66 422.58 312.10 424.08
  C 306.19 427.53 300.04 429.25 293.76 431.57
  C 290.37 432.82 286.65 433.93 282.60 434.88
  C 273.88 436.93 266.09 438.85 256.18 440.08
  C 251.83 440.62 247.51 440.52 243.17 440.94
  C 238.49 441.38 233.45 441.38 228.75 441.17
  C 219.25 440.76 209.96 440.48 200.82 438.92
  C 194.25 437.79 187.38 436.38 180.23 434.67
  C 175.72 433.59 171.49 432.35 167.53 430.96
  C 161.79 428.94 156.44 427.36 150.69 424.72
  C 141.94 420.69 135.19 417.30 130.42 414.57
  C 125.93 411.98 119.53 407.69 111.24 401.68
  C 110.87 400.35 110.70 399.29 110.71 398.50
  C 110.82 390.91 110.80 383.33 110.63 375.75
  C 110.62 375.54 110.73 375.38 110.95 375.29
  Z"
/>
</svg>
